<?xml version="1.0" encoding="utf-8"?>
<!-- Generator: $$$/GeneralStr/196=Adobe Illustrator 27.6.0, SVG Export Plug-In . SVG Version: 6.00 Build 0)  -->
<svg version="1.1" id="Ebene_1" xmlns="http://www.w3.org/2000/svg" xmlns:xlink="http://www.w3.org/1999/xlink" x="0px" y="0px"
	 viewBox="0 0 308.8 182.8" style="enable-background:new 0 0 308.8 182.8;" xml:space="preserve">
<style type="text/css">
	.st0{fill:#FFFFFF;}
	.st1{fill:#50AE2F;}
</style>
<polygon class="st0" points="0,0 0,182.8 308.8,182.8 308.8,0 0,0 "/>
<g>
	<path d="M18.4,167.7c-2.4,0-4.8-0.6-6.9-1.9l1.2-2.3c1.9,1.1,3.6,1.8,5.8,1.8c2.8,0,4.6-1.4,4.6-3.7c0-1.7-1.1-2.9-3.5-3.6
		l-2.2-0.6c-3.2-0.9-5-2.5-5-5.5c0-3.7,2.8-6.2,7.1-6.2c2.4,0,4.6,0.7,6.5,2l-1.3,2.1c-2-1.2-3.3-1.7-5.1-1.7
		c-2.4,0-3.9,1.2-3.9,3.2c0,1.5,0.9,2.4,3.2,3.1l2.5,0.7c2.8,0.8,5.2,2.7,5.2,6C26.5,164,24.1,167.7,18.4,167.7z"/>
	<path d="M32.6,160.1v0.4c0,1.3,0.2,2.4,0.6,3.1c0.8,1.2,2.1,1.8,3.6,1.8c1.5,0,2.7-0.5,3.8-1.5l1.1,1.7c-1.5,1.3-3.3,2-5.4,2
		c-4.3,0-6.9-3.1-6.9-8.2c0-2.7,0.5-4.4,1.9-6c1.2-1.5,2.8-2.1,4.7-2.1c1.7,0,3.1,0.6,4.2,1.7c1.4,1.4,1.9,3.1,1.9,6.7v0.5H32.6z
		 M38.1,154.5c-0.5-0.6-1.2-1.1-2.2-1.1c-2.2,0-3.2,1.8-3.2,4.6h6.4C39.1,156.5,38.7,155.3,38.1,154.5z"/>
</g>
<g>
	<path d="M45.5,167.3v-18.5c0-1.6-0.2-2.6-0.4-3.5l2.9-0.7c0.2,0.8,0.4,2.1,0.4,3.4v19.3H45.5z M55,167.3l-6.4-8.8l5.1-6.7h3.5
		l-5.5,6.6l6.9,8.9H55z"/>
	<path d="M67.3,153.8h-3.1v9.3c0,1.9,0.5,2.5,2,2.5c0.5,0,1-0.1,1.5-0.3l0.3,1.7c-0.9,0.4-1.8,0.6-2.8,0.6c-0.8,0-2-0.2-2.7-0.8
		c-0.6-0.6-1.1-1-1.1-3.1v-10h-1.9v-2h1.9c0-1.2,0-2.8,0.2-4l2.9-0.7c-0.1,1.1-0.3,3.1-0.3,4.6h3.8L67.3,153.8z"/>
</g>
<g>
	<path d="M72.3,149c-1.1,0-2-0.9-2-2c0-1.1,0.9-2.1,2-2.1c1.1,0,2,0.9,2,2.1C74.4,148.1,73.5,149,72.3,149z M70.9,167.3v-15.4
		l2.9-0.5v15.9H70.9z"/>
	<path d="M84.1,167.7c-4.1,0-6.7-3.2-6.7-8.2c0-5,2.6-8.2,6.7-8.2c4.6,0,6.8,3.7,6.8,8.3C90.8,164.6,88.2,167.7,84.1,167.7z
		 M84,153.5c-2.5,0-3.5,1.8-3.5,5.7c0,4.7,1.2,6.3,3.6,6.3c2.2,0,3.5-1.7,3.5-5.7C87.7,155,86.3,153.5,84,153.5z"/>
</g>
<g>
	<path d="M103.1,167.3v-10.5c0-1.4-0.1-1.9-0.5-2.4c-0.3-0.4-0.9-0.6-1.6-0.6c-1.1,0-2.8,0.9-3.8,2v11.5h-2.8v-11.5
		c0-1.9-0.2-2.6-0.6-3.7l2.7-0.7c0.4,0.7,0.5,1.4,0.5,2.4c1-0.8,1.4-1.2,2-1.5c0.9-0.5,1.9-0.8,2.9-0.8c1.6,0,3.1,0.9,3.7,2.2
		c0.2,0.6,0.4,1.2,0.4,1.9v11.7H103.1z"/>
	<path d="M126.8,167.6c-2.8,0-5.1-1-6.7-2.9c-1.7-2-2.5-4.5-2.5-8c0-4.3,1.2-7.2,3.7-9.2c1.5-1.3,3.2-1.8,5.4-1.8
		c2.3,0,4.4,0.7,6,2.1l-1.4,1.9c-1.6-1.1-2.9-1.6-4.5-1.6c-2,0-3.7,0.8-4.6,2.7c-1,2-1.2,3.6-1.2,6.1c0,2.9,0.5,5.1,1.5,6.4
		c0.9,1.2,2.8,1.9,4.6,1.9c1.2,0,2.3-0.3,3.2-0.8v-6.1h-3.9l-0.5-2.4h7.4v10C131.4,167,129,167.6,126.8,167.6z"/>
</g>
<g>
	<path d="M139.9,160.1v0.4c0,1.3,0.2,2.4,0.6,3.1c0.8,1.2,2.1,1.8,3.6,1.8c1.5,0,2.7-0.5,3.8-1.5l1.1,1.7c-1.5,1.3-3.3,2-5.4,2
		c-4.3,0-6.9-3.1-6.9-8.2c0-2.7,0.5-4.4,1.9-6c1.2-1.5,2.8-2.1,4.7-2.1c1.7,0,3.1,0.6,4.2,1.7c1.4,1.4,1.9,3.1,1.9,6.7v0.5H139.9z
		 M145.4,154.5c-0.5-0.6-1.2-1.1-2.2-1.1c-2.2,0-3.2,1.8-3.2,4.6h6.4C146.4,156.5,146,155.3,145.4,154.5z"/>
	<path d="M159.7,154.3c-0.3-0.1-0.5-0.2-0.8-0.2c-1.7,0-3.2,1.5-3.2,3.2v10h-2.8v-11.4c0-1.9-0.2-2.9-0.6-3.9l2.8-0.7
		c0.3,0.6,0.5,1.6,0.5,2.4v0.3c1.2-1.8,2.6-2.7,4.2-2.7c0.4,0,0.7,0.1,1,0.2L159.7,154.3z"/>
</g>
<g>
	<path d="M173.7,167.9c-1-0.4-1.7-1.1-2.1-2.2c-0.4,0.5-1.7,2-4.4,2c-3.1,0-5-1.6-5-4.5c0-3.6,2.9-5.5,7.9-5.5c0.4,0,0.7,0,1.1,0v-1
		c0-1.8-0.2-3.1-2.4-3.1c-1.6,0-3.5,0.8-4.8,1.8l-1.3-2c1.5-0.9,3.5-2,6.5-2c2.3,0,3.9,0.8,4.5,2.5c0.2,0.7,0.3,1.2,0.3,2.7
		c0,1.1-0.1,3.5-0.1,5.8c0,2.1,0.1,3,1.3,3.7L173.7,167.9z M170.2,159.6c-2.1,0-3.4,0.4-4.1,1.1c-0.6,0.7-0.8,1.2-0.8,2.3
		c0,1.7,0.9,2.7,2.4,2.7c1.3,0,2.5-0.8,3.2-2l0.1-4C170.7,159.6,170.5,159.6,170.2,159.6z"/>
</g>
<path class="st1" d="M39.7,58.8c1.5-1.4,4.2-0.6,5.6,0.8c1.2,1.2,3.1,4.4,0.6,6.5c-2.2,1.9-5,0.7-6.4-1.3
	C38.3,63.1,38.3,60.1,39.7,58.8L39.7,58.8z M44.8,52c1.6-1.6,1.2-4.2,0.1-5.5c-1.2-1.4-3.6-0.9-4.9,0.5c-0.9,1-1.7,3.8-0.3,5.5
	C40.7,53.9,43.4,53.3,44.8,52L44.8,52z M63.7,56.7c-0.9,2.4,0.2,4.8,2.1,5.9c1.9,1.1,4.4,0.6,5.7-2.6c0.8-2.3,0.3-5.5-2.3-6.6
	C66.8,52.3,64.7,54.1,63.7,56.7L63.7,56.7z M57.9,59.6c3.3-2.4,3.9-7.1,1.5-10.1c-2.3-3-6.8-3.1-9.9-0.9c-3.1,2.3-3.7,6.7-1.6,9.8
	C50.2,61.9,54.7,62,57.9,59.6L57.9,59.6z M61.9,40.8c-2.1,0.8-3.4,4.6-0.1,7.1c1.8,1.3,4.4,1,5.7-0.9c0.8-1.2,0.5-3.1-0.1-4.3
	C66.4,40.8,64.2,39.9,61.9,40.8L61.9,40.8z M24.4,45.2c5.1,0.8,11.6,1.2,11.6,1.2s-1.6-1.3-3.6-3.8c-2-2.5-4.9-8.2-3.7-9.2
	c1.6-1.3,5.3,1.8,7.8,3c3.4,1.6,6.5,2.2,6.5,2.2s-2.9-7.4-4-12.2c-0.8-3.6-1.8-10.3-1-13.7H12.7v29.9C16,42.9,21,44.6,24.4,45.2
	L24.4,45.2z M40.7,86.4c1-6.8,3.7-11.1,3.7-11.1s-5.9,3.4-7.8,4.5c-1.9,1.1-4.8,2.2-6.5,1.6c-1.7-0.5,2.1-6.5,3.5-8.1
	c1.4-1.6,4-4.7,4-4.7s-7.5,2.4-11.1,3.1c-2.9,0.6-10.4,1-11-0.4c-0.6-1.4,6.5-6.8,9.2-8.8c2.7-1.9,8.9-5.1,8.9-5.1s-6.7,0-13.5-3.1
	c-2.4-1.1-5.3-3.1-7.6-5.2v50.3h28C40.1,95.7,40.1,90.5,40.7,86.4L40.7,86.4z M54.9,43.7c1.5-1.5,0.9-3.7-0.8-4.6
	c-1.5-0.7-4.2-0.4-5.6,1.6c-0.8,1.1-0.7,3.7,1.5,4.5C50.9,45.6,53.2,45.4,54.9,43.7L54.9,43.7z M73.7,12.7c-0.1,2.9-2.5,9-3.7,12.6
	C68.6,29.9,66,38.2,66,38.2s4.8-4.8,6.7-6.8c1.9-2,5.2-6.3,7.2-6c2,0.3-0.3,7.6-1.4,11.2c-1.2,3.7-3.8,9.4-3.8,9.4s5.6,0.4,10.9,0
	c5.3-0.5,12.4-2.6,13.5-1.2c1.6,2-4.1,7-9.1,9.3c-4,1.8-13.2,3.1-13.2,3.1s4.3,3.2,7.9,5c3.6,1.8,14.5,6.6,14,8.2
	c-0.8,2.3-9.3,1.9-13.5,1.1c-4.3-0.7-11.3-3.4-11.3-3.4s2.4,4.4,4.7,6.9c2,2.2,10,8.9,8.9,11c-1,1.9-10.5-0.5-14.6-3.3
	c-4.3-3-7.5-6.6-7.5-6.6s0.5,5.9,0.3,8.5c-0.2,2.6-0.6,7.9-2.5,8.3c-1.5,0.3-4.6-3.8-5.6-7c-1-3.2-1.8-7.7-1.8-7.7s-3,5.6-4.7,9.5
	c-1,2.3-3,7.8-5,11.6h250V12.7H73.7L73.7,12.7z M69.4,12.7H42.4c2.1,2.8,4.5,7.8,5.6,10.3c1.7,3.7,6.2,11.4,6.2,11.4
	c3-6.2,2.7-6.6,6-11.2C62.4,20.1,66.3,15.2,69.4,12.7L69.4,12.7z M58.3,72.3c2.8-0.6,5.1-3.3,3.5-6.2c-1.5-2.7-4.6-3.1-7.8-1.7
	c-2.6,1.1-3.5,3.5-2.7,5.5C52.2,71.8,54.5,73.1,58.3,72.3L58.3,72.3z M132.4,73.1c10.6,0,17.4-7.1,17.4-17.2
	c0-10-6.8-17.2-17.4-17.2h-4.5v34.3H132.4L132.4,73.1z M112,86.6V25.3h23.5c16.9,0,30.9,13.2,30.9,30.7c0,17.5-13.9,30.7-30.9,30.7
	H112L112,86.6z M185.3,76.3l-4,10.4h-17l24.8-61.3h17.1l24.8,61.3h-17l-4-10.4H185.3L185.3,76.3z M205.4,64.1l-7.6-19.8h-0.2
	L190,64.1H205.4L205.4,64.1z M251.3,64.1l14.8-38.7h17.3l-24.8,61.3h-14.9l-24.8-61.3h17.3l14.8,38.7H251.3L251.3,64.1z"/>
<path d="M27.5,122.6c0-2.9-0.6-5.4-1.9-7.1c-1.9-2.7-4.3-3.5-8-3.5h-5v21.3H18c3.7,0,5.7-1,7.2-2.9
	C26.6,128.6,27.5,126.1,27.5,122.6L27.5,122.6z M24.2,123c0,2.1-0.4,4-1.1,5.4c-1,1.7-2.5,2.4-5,2.4h-2.4v-16.5h2.4
	c2.1,0,3.3,0.4,4.5,1.9C23.9,117.8,24.2,120,24.2,123L24.2,123z M43.1,126.1v-0.5c0-3.6-0.5-5.3-1.9-6.7c-1.1-1.1-2.5-1.7-4.2-1.7
	c-1.9,0-3.4,0.7-4.7,2.1c-1.3,1.6-1.9,3.3-1.9,6c0,5.1,2.6,8.2,6.9,8.2c2,0,3.8-0.6,5.4-2l-1.1-1.7c-1.1,1-2.4,1.5-3.8,1.5
	c-1.5,0-2.8-0.6-3.6-1.8c-0.5-0.7-0.6-1.8-0.6-3.1v-0.4H43.1L43.1,126.1z M40.2,124h-6.4c0-2.8,1.1-4.6,3.2-4.6c1,0,1.7,0.5,2.2,1.1
	C39.8,121.3,40.2,122.5,40.2,124L40.2,124z M59.2,132.3c-0.6-0.5-1-1.6-1-3.2v-11.7l-2.8,0.6v11.1c-0.6,1.4-2.1,2.4-3.5,2.4
	c-0.7,0-1.4-0.3-1.8-0.7c-0.6-0.5-0.7-1.1-0.7-2.7v-10.8l-2.8,0.6v11c0,1.1,0.1,2,0.4,2.6c0.6,1.4,2.2,2.3,4.2,2.3
	c1.9,0,3.4-0.7,4.7-2.2c0.3,1.1,0.7,1.6,1.5,2.2L59.2,132.3L59.2,132.3z M69.6,117.8h-3.8c0-1.6,0.2-3.5,0.3-4.6l-2.9,0.7
	c-0.2,1.2-0.2,2.8-0.2,4h-1.9v2H63v10c0,2.1,0.4,2.5,1.1,3.1c0.7,0.6,1.9,0.8,2.7,0.8c1,0,1.9-0.2,2.8-0.6l-0.3-1.7
	c-0.5,0.2-0.9,0.3-1.5,0.3c-1.5,0-2-0.6-2-2.5v-9.3h3.1L69.6,117.8L69.6,117.8z M83.7,128.5c0-2-1.2-3.7-4-4.3l-2-0.5
	c-1.6-0.4-2.2-1-2.2-2.1c0-1.4,1.1-2.3,2.7-2.3c1.2,0,2.4,0.4,3.8,1.1l1-2c-1.3-0.7-3-1.3-4.9-1.3c-3.3,0-5.6,2-5.6,4.8
	c0,2.3,1.3,3.8,3.8,4.3l1.9,0.4c1.8,0.3,2.6,1.1,2.6,2.4c0,1.5-1.2,2.5-2.9,2.5c-1.7,0-3.5-0.7-5-1.5l-1,2c1.8,1.1,3.9,1.6,5.8,1.6
	C81.2,133.7,83.7,131.6,83.7,128.5L83.7,128.5z M97.7,131.6l-1.4-1.8c-0.9,1.1-2.1,1.6-3.2,1.6c-0.9,0-1.7-0.3-2.2-0.9
	c-0.8-0.9-1.2-2.3-1.2-4.5c0-2.1,0.2-3.7,0.7-4.7c0.5-1.1,1.5-1.7,2.7-1.7c1,0,1.7,0.3,2.7,1.2l1.5-1.9c-1.2-1.1-2.5-1.6-4.2-1.6
	c-1.5,0-2.9,0.6-4,1.6c-1.5,1.3-2.6,3.3-2.6,6.8c0,2.4,0.5,4.1,1.5,5.6c1.1,1.5,2.8,2.3,5,2.3C94.9,133.6,96.2,133,97.7,131.6
	L97.7,131.6z M112.7,133.3v-11c0-1.4-0.1-1.8-0.3-2.5c-0.5-1.4-2.1-2.3-3.9-2.3c-1.1,0-2.2,0.3-3.4,1.1c-0.6,0.4-1,0.6-1.6,1.3
	c0.1-0.8,0.1-1.5,0.1-2.1v-3.5c0-1.5-0.1-2.7-0.3-3.6l-2.9,0.6c0.2,0.9,0.3,1.9,0.3,3.2v18.8h2.9v-11.1c1.2-1.4,2.8-2.3,4.1-2.3
	c0.7,0,1.4,0.3,1.7,0.6c0.3,0.3,0.5,1.1,0.5,2.2v10.6H112.7L112.7,133.3z M129,126.1v-0.5c0-3.6-0.5-5.3-1.9-6.7
	c-1.1-1.1-2.5-1.7-4.2-1.7c-1.9,0-3.4,0.7-4.7,2.1c-1.3,1.6-1.9,3.3-1.9,6c0,5.1,2.6,8.2,6.9,8.2c2,0,3.8-0.6,5.4-2l-1.1-1.7
	c-1.1,1-2.4,1.5-3.8,1.5c-1.5,0-2.8-0.6-3.6-1.8c-0.5-0.7-0.6-1.8-0.6-3.1v-0.4H129L129,126.1z M126,124h-6.4c0-2.8,1.1-4.6,3.2-4.6
	c1,0,1.7,0.5,2.2,1.1C125.7,121.3,126,122.5,126,124L126,124z M140.4,117.4c-0.2-0.1-0.6-0.2-1-0.2c-1.6,0-3,0.9-4.2,2.7v-0.3
	c0-0.8-0.2-1.8-0.5-2.4l-2.8,0.7c0.4,1,0.6,2,0.6,3.9v11.4h2.8v-10c0-1.7,1.5-3.2,3.2-3.2c0.3,0,0.5,0.1,0.8,0.2L140.4,117.4
	L140.4,117.4z M165.2,133.3l-6.9-21.4h-3.7l-7,21.4h3.1l1.9-6h7.4l1.9,6H165.2L165.2,133.3z M159.3,124.8h-6c0.4-1,2.6-8.7,2.9-9.9
	h0.2C156.7,116.1,158.9,123.8,159.3,124.8L159.3,124.8z M172.3,133.3l-0.5-1.8c-0.3,0.1-0.6,0-0.9-0.1c-0.4-0.3-0.5-0.8-0.5-1.9V115
	c0-1.9,0-3.4-0.3-4.4l-3,0.6c0.2,1.2,0.3,2.3,0.3,4.5v14c0,1.5,0.1,2,0.6,2.7c0.6,0.8,1.3,1.2,2.4,1.2
	C171.2,133.6,171.7,133.5,172.3,133.3L172.3,133.3z M188,125.3c0-5.3-2.7-7.9-5.8-7.9c-1.6,0-3.2,0.7-4.4,2.2c0-1.3-0.1-1.8-0.2-2.2
	l-2.8,0.5c0.2,1,0.3,2,0.3,3.8v18.2l2.8-0.6v-5.4c0-0.6,0-1.2-0.1-1.7c1.2,1.1,2.6,1.6,4,1.6C185.9,133.6,188,130.1,188,125.3
	L188,125.3z M184.9,125.6c0,3.8-1.1,5.7-3.7,5.7c-1.1,0-2.4-0.7-3.3-1.7v-7.9c1.1-1.2,2.3-1.9,3.7-1.9
	C184.1,119.8,184.9,121.9,184.9,125.6L184.9,125.6z M203.6,126.1v-0.5c0-3.6-0.5-5.3-1.9-6.7c-1.1-1.1-2.5-1.7-4.2-1.7
	c-1.9,0-3.4,0.7-4.7,2.1c-1.3,1.6-1.9,3.3-1.9,6c0,5.1,2.6,8.2,6.9,8.2c2,0,3.8-0.6,5.4-2l-1.1-1.7c-1.1,1-2.4,1.5-3.8,1.5
	c-1.5,0-2.8-0.6-3.6-1.8c-0.5-0.7-0.6-1.8-0.6-3.1v-0.4H203.6L203.6,126.1z M200.6,124h-6.4c0-2.8,1.1-4.6,3.2-4.6
	c1,0,1.7,0.5,2.2,1.1C200.3,121.3,200.6,122.5,200.6,124L200.6,124z M218.6,133.3v-11.7c0-0.7-0.1-1.4-0.4-1.9
	c-0.6-1.3-2-2.2-3.7-2.2c-1,0-2,0.2-2.9,0.8c-0.6,0.3-1,0.7-2,1.5c0-1-0.2-1.6-0.5-2.4l-2.7,0.7c0.4,1.1,0.6,1.8,0.6,3.7v11.5h2.8
	v-11.5c1.1-1.1,2.7-2,3.8-2c0.7,0,1.3,0.2,1.6,0.6c0.4,0.5,0.5,1,0.5,2.4v10.5H218.6L218.6,133.3z M234.7,117.8h-3l-2.9,8.9
	c-0.4,1.3-0.7,2.5-0.9,3.4h-0.1c-0.2-1.1-0.6-2.3-0.9-3.3l-3.1-9.4l-2.9,0.5l5.5,15.6h2.7L234.7,117.8L234.7,117.8z M248.6,126.1
	v-0.5c0-3.6-0.5-5.3-1.9-6.7c-1.1-1.1-2.5-1.7-4.2-1.7c-1.9,0-3.4,0.7-4.7,2.1c-1.3,1.6-1.9,3.3-1.9,6c0,5.1,2.6,8.2,6.9,8.2
	c2,0,3.8-0.6,5.4-2l-1.1-1.7c-1.1,1-2.4,1.5-3.8,1.5c-1.5,0-2.8-0.6-3.6-1.8c-0.5-0.7-0.6-1.8-0.6-3.1v-0.4H248.6L248.6,126.1z
	 M245.6,124h-6.4c0-2.8,1.1-4.6,3.2-4.6c1,0,1.7,0.5,2.2,1.1C245.3,121.3,245.6,122.5,245.6,124L245.6,124z M260,117.4
	c-0.2-0.1-0.6-0.2-1-0.2c-1.6,0-3,0.9-4.2,2.7v-0.3c0-0.8-0.2-1.8-0.5-2.4l-2.8,0.7c0.4,1,0.6,2,0.6,3.9v11.4h2.8v-10
	c0-1.7,1.5-3.2,3.2-3.2c0.3,0,0.5,0.1,0.8,0.2L260,117.4L260,117.4z M273.7,126.1v-0.5c0-3.6-0.5-5.3-1.9-6.7
	c-1.1-1.1-2.5-1.7-4.2-1.7c-1.9,0-3.4,0.7-4.7,2.1c-1.3,1.6-1.9,3.3-1.9,6c0,5.1,2.6,8.2,6.9,8.2c2,0,3.8-0.6,5.4-2l-1.1-1.7
	c-1.1,1-2.4,1.5-3.8,1.5c-1.5,0-2.8-0.6-3.6-1.8c-0.5-0.7-0.7-1.8-0.7-3.1v-0.4H273.7L273.7,126.1z M270.7,124h-6.4
	c0-2.8,1.1-4.6,3.2-4.6c1,0,1.7,0.5,2.2,1.1C270.4,121.3,270.7,122.5,270.7,124L270.7,124z M280.1,133.3v-15.9l-2.9,0.5v15.4H280.1
	L280.1,133.3z M280.7,113c0-1.2-0.9-2.1-2-2.1c-1.1,0-2,0.9-2,2.1c0,1.1,0.9,2,2,2C279.7,115.1,280.7,114.1,280.7,113L280.7,113z
	 M296.1,133.3v-11.7c0-0.7-0.1-1.4-0.4-1.9c-0.6-1.3-2-2.2-3.7-2.2c-1,0-2,0.2-2.9,0.8c-0.6,0.3-1,0.7-2,1.5c0-1-0.2-1.6-0.5-2.4
	l-2.7,0.7c0.4,1.1,0.6,1.8,0.6,3.7v11.5h2.8v-11.5c1.1-1.1,2.7-2,3.8-2c0.7,0,1.3,0.2,1.6,0.6c0.4,0.5,0.5,1,0.5,2.4v10.5H296.1
	L296.1,133.3z"/>
</svg>
