<?xml version="1.0" encoding="utf-8"?>
<!-- Generator: Adobe Illustrator 27.8.1, SVG Export Plug-In . SVG Version: 6.00 Build 0)  -->
<svg version="1.1" id="Ebene_1" xmlns="http://www.w3.org/2000/svg" xmlns:xlink="http://www.w3.org/1999/xlink" x="0px" y="0px"
	 viewBox="0 0 240.94 114.15" style="enable-background:new 0 0 240.94 114.15;" xml:space="preserve">
<style type="text/css">
	.st0{fill:#707680;}
</style>
<g>
	<polygon class="st0" points="208.98,52.33 198.64,25.33 186.55,25.33 203.84,68.08 214.27,68.08 231.56,25.33 219.47,25.33 
		209.13,52.33 208.98,52.33 	"/>
	<path class="st0" d="M123.08,58.67V34.74h3.12c7.37,0,12.1,4.98,12.1,11.96c0,6.99-4.74,11.96-12.1,11.96H123.08L123.08,58.67z
		 M128.35,68.08c11.81,0,21.52-9.19,21.52-21.38c0-12.19-9.71-21.38-21.52-21.38h-16.38v42.76H128.35L128.35,68.08L128.35,68.08z"/>
	<path class="st0" d="M180.4,60.84l2.78,7.24h11.84l-17.29-42.76h-11.91l-17.29,42.76h11.84l2.78-7.24H180.4L180.4,60.84z
		 M166.4,52.33l5.29-13.79h0.14l5.29,13.79H166.4L166.4,52.33z"/>
	<g>
		<path class="st0" d="M120.86,103.94c-3.05,0-5.48-1.03-7.23-3.09c-1.83-2.12-2.65-4.81-2.65-8.56c0-4.58,1.33-7.73,3.95-9.89
			c1.66-1.36,3.48-1.96,5.74-1.96c2.49,0,4.68,0.73,6.47,2.29l-1.53,1.99c-1.69-1.23-3.12-1.73-4.88-1.73
			c-2.19,0-3.92,0.86-4.91,2.92c-1.06,2.19-1.26,3.82-1.26,6.54c0,3.15,0.56,5.51,1.63,6.9c1,1.29,2.95,2.06,4.91,2.06
			c1.29,0,2.46-0.33,3.38-0.86v-6.5h-4.21l-0.53-2.62h7.9v10.69C125.77,103.28,123.28,103.94,120.86,103.94z"/>
		<path class="st0" d="M134.93,95.95v0.4c0,1.43,0.2,2.52,0.7,3.32c0.86,1.33,2.22,1.96,3.82,1.96c1.56,0,2.89-0.53,4.08-1.59
			l1.16,1.83c-1.63,1.43-3.58,2.12-5.74,2.12c-4.61,0-7.43-3.35-7.43-8.79c0-2.89,0.56-4.75,1.99-6.44
			c1.33-1.56,2.95-2.29,5.01-2.29c1.86,0,3.35,0.6,4.51,1.79c1.46,1.49,1.99,3.35,2.02,7.17v0.53H134.93z M140.84,89.94
			c-0.53-0.66-1.33-1.16-2.39-1.16c-2.32,0-3.48,1.89-3.48,4.91h6.9C141.87,92.1,141.5,90.77,140.84,89.94z"/>
	</g>
	<g>
		<path class="st0" d="M156.2,89.67c-0.3-0.1-0.53-0.17-0.86-0.17c-1.86,0-3.45,1.56-3.45,3.38v10.72h-3.05V91.4
			c0-2.02-0.23-3.12-0.63-4.15l2.95-0.76c0.3,0.63,0.56,1.73,0.56,2.56v0.3c1.33-1.92,2.75-2.89,4.51-2.89
			c0.4,0,0.76,0.07,1.03,0.17L156.2,89.67z"/>
		<path class="st0" d="M171.21,104.31c-1.03-0.4-1.83-1.23-2.22-2.39c-0.43,0.53-1.83,2.19-4.71,2.19c-3.32,0-5.38-1.69-5.38-4.88
			c0-3.85,3.09-5.91,8.46-5.91c0.4,0,0.73,0,1.16,0.03v-1.09c0-1.96-0.27-3.29-2.59-3.29c-1.76,0-3.75,0.86-5.11,1.89l-1.39-2.19
			c1.63-0.93,3.75-2.19,6.97-2.19c2.42,0,4.18,0.9,4.81,2.65c0.27,0.73,0.33,1.29,0.33,2.92c0,1.19-0.13,3.75-0.13,6.17
			c0,2.29,0.07,3.22,1.36,4.02L171.21,104.31z M167.46,95.38c-2.29,0-3.68,0.43-4.35,1.19c-0.63,0.73-0.86,1.33-0.86,2.42
			c0,1.83,0.93,2.89,2.62,2.89c1.39,0,2.72-0.86,3.48-2.19l0.1-4.25C167.99,95.42,167.72,95.38,167.46,95.38z"/>
	</g>
</g>
<path class="st0" d="M84.63,62.17c-3.63-1.79-7.9-5.02-7.9-5.02s9.18-1.26,13.17-3.1c5.02-2.31,10.75-7.27,9.13-9.3
	c-1.12-1.4-8.28,0.75-13.54,1.21c-5.25,0.46-10.86,0.04-10.86,0.04s2.65-5.78,3.83-9.43c1.18-3.65,3.49-10.93,1.45-11.22
	c-1.98-0.28-5.3,4.04-7.22,6.04c-1.92,2-6.7,6.79-6.7,6.79s2.64-8.23,4.06-12.86c1.42-4.63,4.99-13.38,3.14-14.27
	c-2.51-1.2-9.6,7.51-12.99,12.15c-3.34,4.57-3,4.93-5.99,11.16c0,0-4.49-7.7-6.19-11.37c-1.69-3.67-6.04-12.72-8.3-12.44
	c-3.03,0.46-1.7,11.03-0.57,15.83c1.13,4.81,4,12.16,4,12.16s-3.14-0.58-6.54-2.21c-2.56-1.22-6.22-4.3-7.81-3.01
	c-1.25,1.01,1.68,6.76,3.66,9.23c1.98,2.47,3.6,3.79,3.6,3.79s-6.49-0.34-11.61-1.17c-5.12-0.83-14.05-4.29-14.96-1.86
	c-1.06,2.81,6.02,8.76,10.73,10.89c6.79,3.08,13.46,3.1,13.46,3.1s-6.18,3.2-8.87,5.14c-2.69,1.94-9.79,7.34-9.21,8.75
	c0.58,1.41,8.05,0.99,10.95,0.44c3.67-0.7,11.12-3.09,11.12-3.09s-2.62,3.02-4.01,4.66c-1.39,1.64-5.13,7.6-3.47,8.15
	c1.66,0.54,4.6-0.56,6.47-1.62c1.87-1.05,7.76-4.48,7.76-4.48s-2.75,4.3-3.72,11.12c-0.97,6.82-0.32,16.89,1.95,17.22
	c2.27,0.32,6.82-12.02,8.44-15.92c1.63-3.9,4.66-9.52,4.66-9.52s0.71,4.48,1.76,7.66c1.05,3.17,4.12,7.24,5.65,6.95
	c1.91-0.35,2.34-5.71,2.51-8.29c0.17-2.59-0.32-8.49-0.32-8.49s3.21,3.68,7.49,6.63c4.08,2.82,13.62,5.22,14.6,3.33
	c1.07-2.07-6.9-8.79-8.9-10.97c-2.27-2.48-4.72-6.91-4.72-6.91s6.99,2.69,11.26,3.44c4.27,0.75,12.78,1.2,13.53-1.13
	C99.13,68.79,88.26,63.96,84.63,62.17z M48.43,40.73c1.35-1.96,4.11-2.31,5.59-1.6c1.75,0.86,2.32,3.1,0.84,4.6
	c-1.71,1.71-3.94,1.91-4.98,1.52C47.73,44.45,47.67,41.85,48.43,40.73L48.43,40.73L48.43,40.73z M39.96,47.06
	c1.3-1.48,3.7-1.94,4.88-0.55c1.16,1.29,1.5,3.88-0.07,5.48c-1.34,1.36-4.08,1.9-5.11,0.57C38.24,50.82,39.08,48.08,39.96,47.06
	L39.96,47.06L39.96,47.06z M45.91,66.14c-2.2,1.9-5.01,0.7-6.4-1.27c-1.2-1.73-1.25-4.76,0.19-6.06c1.55-1.42,4.19-0.6,5.59,0.83
	C46.44,60.84,48.38,64,45.91,66.14L45.91,66.14L45.91,66.14z M47.96,58.53c-2.11-3.14-1.44-7.54,1.63-9.83
	c3.09-2.27,7.55-2.12,9.89,0.86c2.33,2.99,1.77,7.64-1.53,10.07C54.72,62.01,50.22,61.88,47.96,58.53L47.96,58.53L47.96,58.53z
	 M58.27,72.27c-3.8,0.81-6.09-0.48-6.94-2.45c-0.82-1.96,0.06-4.41,2.66-5.5c3.11-1.32,6.29-0.94,7.75,1.74
	C63.37,69.01,61.08,71.67,58.27,72.27L58.27,72.27L58.27,72.27z M61.79,47.89c-3.21-2.42-1.95-6.27,0.15-7.06
	c2.26-0.9,4.49,0.02,5.47,1.91c0.61,1.18,0.92,3.12,0.07,4.29C66.17,48.85,63.59,49.22,61.79,47.89L61.79,47.89L61.79,47.89z
	 M71.46,59.91c-1.21,3.29-3.72,3.72-5.65,2.65c-1.9-1.04-3.03-3.47-2.09-5.86c1.02-2.63,3.06-4.36,5.48-3.36
	C71.79,54.43,72.28,57.59,71.46,59.91L71.46,59.91L71.46,59.91z"/>
</svg>
