<?xml version="1.0" encoding="utf-8"?>
<!-- Generator: Adobe Illustrator 30.2.1, SVG Export Plug-In . SVG Version: 9.03 Build 0)  -->
<svg version="1.1" id="Ebene_1" xmlns="http://www.w3.org/2000/svg" xmlns:xlink="http://www.w3.org/1999/xlink" x="0px" y="0px"
	 viewBox="0 0 992.13 283.46" enable-background="new 0 0 992.13 283.46" xml:space="preserve">
<g id="Generatives_Objekt_00000060016933408878929720000002312150651058038718_">
	<path fill="#7A88A8" d="M376.88,100.7c-0.43,2.68-1.28-0.52-3.34,3.89c-1.34,0.36-2.85-0.33-3.84-1.12
		c-0.6-1.82,4.09,0.27,3.65-1.51C374.14,101.19,375.81,101.04,376.88,100.7z"/>
	<path fill="#1E294D" d="M373.35,101.97c0.44,1.77-4.25-0.31-3.65,1.51c-2.68-0.42-5.51-0.59-8.06-1.43
		c-0.11-0.84,0.72-0.53,1.1-0.71C361.07,102.1,373.16,102.16,373.35,101.97z"/>
	<g>
		<path fill="#FFFEFF" d="M475.61,47.39c-0.2-0.17-0.4-0.23-0.53,0.09c-4.74,11.38-10.86,21.8-18.44,31.87
			c-1.04,1.38-2.23,2.58-2.22,4.02c-1.16,0.29-2.14,1.61-1.8,2.96c1.54-0.87,1.81-2.1,1.8-2.96c1.06-0.26,1.62-1.47,2.43-2.49
			c7.51-9.56,13.19-19.92,18.21-30.73C475.56,49.08,475.4,48.1,475.61,47.39c1.27,1.06,0.61-4.25,2.22-3.35
			c-0.01,1.97-0.37,3.36-0.45,4.97l-0.57,11.42c-0.21,4.22-2.52,7.92-2.62,12.4c1.12-1.47,1.53-3.28,1.82-5.02
			c1.88-11.5,10.3-19.1,14.39-31.74c-1.87,0.52-2.19,2.17-2.67,3.32c-1.57-0.97-1.51-2.36-0.77-3.35c0.43,1.86,1.17,2.67,1.11,1.08
			c1.26-2.17-0.19-3.57,0.26-5.82l5.91,10.94l-18.15,35.63l-10,18.26c-0.83,1.51-3.18,2.97-1.7,4.73
			c9.28-15.42,17.5-30.75,25.7-46.88c1.84-3.62,3.43-6.86,5.64-10.11c4.78,6.7,10.52,11.2,16.5,15.7c0.23,0.32-0.01,0.66-0.26,0.84
			c-0.13,0.17-0.47,0.13-0.75,0.23l-12.69,18.91c-1.62,2.42-4.37,4.24-4.41,7.47c6.37-7.89,11.97-15.94,17.3-24.22
			c1.4-0.06,2.7,0.59,3.42,1.6c2.01,2.82-3.02,6.5-2.63,10.4c1.59-0.96,1.01-2.75,2.2-4.16c1.71-2.02,3.48-5.08,0.69-7.25
			c-1.04-0.81-1.59-1.46-1.25-2.5c1.59,1.34,2.87,3.29,4.78,4.43l4.27-0.1l-17.9,17.65c-16.45,16.22-31.65,32.66-48.35,48.32
			c-0.91,0.85-1.56,2.12-2.08,2.77c2.46,0.1,2.5-1.92,3.5-2.85l43.15-40.26c8.67-8.08,12.97-13.64,21.68-21.37
			c-5.13,14.66-19.67,31.59-30.8,43.81c7.31-4.99,25.08-27.25,29.03-35.93l5.4-11.87c1.04,1.04,0.81,2.2,0.91,3.17l-4.26,10.57
			c0.7,0.3,1.04,0.1,1.41,0.14c-0.25,3.68-3.66,7.69-3.66,10c-1.09-0.06-1.35,1.32-1.91,2.16l-6.2,9.23
			c4.33-2.85,6.46-7.34,8.11-11.39c0.49,0.36,0.7-0.05,0.93-0.51l8.51-17.61c3.12,6.06,6.85,10.79,11.1,16.34
			c-2.17,0.24-6.95-7.12-10.09-6.61c-4.28,3.26-7.22,7.52-10.31,11.84c-6.28,8.77-13.3,16.04-21.68,22.89
			c-12,9.8-23.65,19.6-35.01,30.01c-1.54,1.41-3.63,1.85-5.15,4.01c2.45-0.05,3.29-1.84,4.86-3.13l31.85-26.12
			c10.32-8.46,19.79-16.99,28.31-26.85c2.83-3.27,5.91-6.33,8.12-10.51c4.1,2.55,6.23,5.45,9.45,7.84
			c9.21,6.81,17.16,14.39,24.93,22.68c0.43-2.41-2.14-3.06-3.7-4.72c-11.71-12.44-21.54-25.38-30.6-39.25
			c-1.12-1.71-2.08-3.07-2.48-4.7c0.2,0.12,0.33,0.37,0.47,0.08c1.61,2.32,16.37,17.18,15.96,17.8c-0.12,0.18-0.59,0.2-0.58,0.5
			c-0.73-0.32-0.81-1.24-2.25-0.98c3.23,5.02,5.61,10.66,10.39,14.83c6.92,6.04,13.06,11.73,19.39,16.93
			c-2.95-3.29-5.66-6.66-9.15-9.54c-8.28-6.82-6.57-10.99-13.54-18.81c4.18-1.76,6.86,0.08,9.12,2.87
			c7.3,9.03,13.84,18.08,22.14,26.42c8.62,8.66,18.03,16.11,27.76,23.62c-0.9-2.99-4.38-4.09-6.02-6.79
			c0.05-0.89,2.41-1.13,3.37-0.41c11.46,8.57,21.98,17.43,32.84,26.67l26.47,22.54c1.11,0.95,1.48,2.98,3.93,2.52
			c-1.03-1.76-3.22-2.44-4.89-3.95l-24.83-22.43c-10.89-9.84-21.81-19.03-33.98-27.67c-1.74-0.36-3.63,0.45-5.42,0.37l-12.56-10.9
			l22.87-16.03c-2.23,5.98-6.71,10.16-7.96,16.21l9.04-16.43c3.13-0.03,8.11-1.04,10.89,1.33c2.68,2.28,4.06,5.61,5.63,8.37
			c4.63,8.15,9.93,15.07,16.74,21.91c8.1,8.14,15.2,16.19,22.67,24.55c9.29,10.39,18.61,20.26,28.62,29.87
			c0.92,0.88,0.96,2.99,3.48,2.87c-1.25-1.64-2.5-3.26-4.29-4.79c-4.21-3.59-7.43-7.8-11.24-11.66
			c-6.18-6.26-10.92-13.2-16.42-19.52c0.28-0.79-0.64-1.81-1.57-1.96c0.03-2-2.38-3.71-3.79-4.6c-7.16-12.53-21.35-18.82-29-31.56
			l-7.43-12.37c-2.02-3.37-4.78-4.18-9.73-4.74c8.66-4.04,12.25-10.58,18.67-17.66c3.95,9.25,8.72,17.79,13.5,26.47
			c3.05,5.54,5.71,11.18,10.98,15.6c-1.42-6.71-5.98-11.72-8.34-16.64l-8.03-16.75c4.8,3.18,4.63,8.33,12.2,6.88
			c0.42,5.08-0.6,9.52,0.39,14.11l0.81-11.93c6.76,2.29,2.54,11.59,5.51,17.38c3.96,7.74,5.85,14.07,12.76,21.35l-7.85-13.51
			c-1.99-3.42-4.01-7.28-3.46-11.34l0.92-6.9c11.5,9.92,16.98,18.48,30.47,25.46c1.98,1.03,3.55,2.21,4.93,3.44
			c0.16,2.37,4.32,5.63,5.62,7.05c11.22,12.33,24.5,23.65,40.69,29.69c-14.59-7.75-27.69-16.29-38.79-28.67
			c-2.12-2.37-4.16-4.34-5.65-6.64c4.94,3.33,17.62,12.57,21.47,16.58c2.41,2.51,4.43,4.62,7.42,6.64
			c9.16,6.17,17.98,12.49,27.51,18.18c11.8,7.05,23.38,4.62,31.58,7.8c4.39,1.7,7.42,4.98,11.2,7.98
			c18.68,14.82,37.96,28.46,60.09,37.99c-18.35-10.33-35.65-21.2-52.24-34.5c-5.71-4.58-10.53-9.14-16.88-12.8
			c-7.97-4.59-21.03-0.65-34.99-9.98c-13.84-9.25-26.56-18.91-39.39-29.44c-8.9-7.3-17.63-13.22-27.49-18.92
			c-8.41-4.86-23.44-22.3-33.2-30.32c-1.51-1.24-4.12-0.57-5.67-0.98l-14.6-15.76c-0.8-0.86-1.76-1.38-2.53-1.1
			c-0.99,0.36-1,1.17-1.76,1.83c0.29-2.85,10.62-14.41,12.75-15.93c-1.45-1.57-1.75,0.64-2.58,0.74c-0.16-1.05,1.77-3.74,3.06-2.61
			c0.17-0.49,0.72-3.01,2.13-2.49c2.48,7.92,5.03,15.06,9.06,21.86c0.28,0.47,0.1,1.29,0.46,1.73c0.24,0.29,1.01,1,1.39,0.2
			c-4.39-8.44-8.04-16.37-10.18-25.34c2.24-2.55,4.35-5.06,7.83-6.6c7.81,4.29,12.36,14.06,20.99,10.56
			c-2,13.16,8.99,26.37,11.22,34.59c1.25,4.61-1.49,9.68,0.37,14.01c0.86-3.96-0.6-7.57,1.22-11.77
			c5.12,8.38,12.06,14.75,19.42,21.16l13.53,11.76c0.49,0.43,0.99,0.7,1.17,1.14c0.24,0.56,0.58,0.25,0.74-0.03
			c-0.66,1.15-9.82-11.65-11.82-15.77l-11.59-23.86c-2.14-4.4-4.83-8.6-5.78-13.38c8.14,5.9,15.21,13.15,24.5,18.19
			c3.42,1.85,6.4,2.21,9.54,0.12c-0.1,3.39-0.92-1.55-1.56,5.75c-0.83-1.09-0.84-2.04-1.66-2.79c-0.81,2.11,1.13,3.24,2.09,4.85
			c0.16,1.11,0.99,0.11,0.58-0.76l1.57-7.33c0.6-0.26,2.35-1,2.65,0.24c0.48,2-0.76,4.14-0.73,5.85c-1.37,0.48-1.19,2.36-2.75,3.71
			c2,2.82,21.44,24.44,21.72,24.43c0.49-0.01,1.68-0.81-0.02-0.71c-4.67-6.02-10.35-11.24-14.04-17.72
			c-1.18-2.32-0.16-5.43-0.52-7.74c-0.25-1.61,1.05-3.38,0.34-5.34c2.72,0.3,4.66-0.5,7.27-0.97c-1,3.08-3.86,4.82-6.06,7.61
			c4.11,0.29,6.52-9.48,8.34-7.66c4.39,4.39,4.6,8.65,13.04,9.14c-1.76,9.69,3.51,22.61,9.61,29.9c0.29,1.2,1.6,0.59,0.77-0.69
			c-5.1-4.68-11.05-21.01-8.63-26.98c2.61,6.52,2.06,13.17,5.69,18.85c4.14,6.48,9.75,11.66,14.72,17.15
			c-9.63-14.15-16.1-13.24-17.48-32.1c14.52,20.19,32.55,37.46,54.64,50.57c9.37,5.56,18.83,9.86,29.07,14.48l55.49,25.01
			c13.86,6.25,27.92,9.59,42.37,14.43l33.58,11.25c2.26,0.76,4.34,2.02,6.57,1.91v35.32l-14.61-3.33
			c-7.32-1.67-14.62-3.14-22.12-5.09l-35.87-9.32c-4.35-1.13-27.9,2.12-29.43,1.57l-33.85-12.29c-8.81-3.2-17.16-5.11-26.36-6.74
			c-13.93-2.47-27.16-5.24-40.79-8.59c-29.17-7.16-40.24,12.41-59.29,3.14c-23.31-11.34-32.49-23.63-53.72-34.21l-23.71-11.81
			c-10.36-5.16-18.65-11.65-26.43-19.81c-8.43-8.83-16.92-16.64-26.21-24.75c-3.57-3.11-5.69-7.1-10.52-8.39l9.31,8.19
			c6.76,5.95,13.18,11.72,18.56,18.39c-1.7-0.95-3.66-1.25-4.83-2.27c-5.08-4.42-15.64-12.54-23.51-11.82
			c-9.63-3.85-18.41-8.85-27.78-13.18c-9.55-4.41-20.11-6.08-24.87-9.48c-1.67-1.19-3.66-1.63-5.83-2.81
			c-2.43,2.5-4.32,4.75-6.32,7.44c-6.88,9.25-15.79,16.71-25.45,24.08c-2.2,1.68-5.08,2.17-6.05,4.44c-2.5,0.52-4.62,3.02-6.66,4.58
			c2.77-0.7,5.75-2.46,6.66-4.58c2.69-0.56,3.89-2.41,6.39-4.19c11.84-8.41,21.91-17.72,29.96-29.21c0.57-0.82,2.24-1.13,2.85-1.28
			l10.51,6.62c6.9,4.34,5.53-0.02,16.26,5.23l28.28,13.84c-10.31,4.32-18.97,9.52-27.14,16.19l-17.76,14.52
			c-3.98,3.26-8.11,6.37-13.08,8.57c-10,4.41-19.57,8.8-28.63,15.05c1.64,1.86,2.23-0.65,3.43-1.24c5.66-2.8,10.76-6.36,16.74-8.72
			c8.58-3.38,16.29-6.74,23.32-12.65c13.9-11.67,29.53-24.97,46.97-30.91c2.78-0.95,6.83,1.74,8.73,3.28
			c-16.06,19.47-35.72,34.8-46.2,55.54c-1.46,1.5-3.43,3.42-3.49,6.16c1.8-2,2.98-4.11,4.22-6.16
			c14.23-23.57,28.45-32.99,46.41-54.07c4.23,3.65,6.83,8.85,11.42,11.16c4.85,2.45,8.03,4.34,11.57,8.37
			c10.1,11.52,23.05,19.4,37.31,23.95c-1.23-2.5-4.34-2.04-6.68-3.15c-12.29-5.85-23.17-12.84-31.32-23.48
			c5.9,2.34,10.35,6.17,15.23,9.96c11.05,8.6,34.08,16.92,45.76,24.97c8.72,10.1,18.91,19.15,27.36,28.94l2.75,3.18
			c0.96-2.65-2.23-2.79-2.75-3.85c-0.54-1.09-1.65-1.4-2.55-2.21c-7.86-7.1-15.08-14.77-20.88-23.97l20.49,14.12
			c8.19,5.64,16.45,10.41,25.62,13.94c13.1,5.03,25.6-5.67,43.69-5.85c5.09-0.05,9.88,1.49,14.71,2.59
			c12.5,2.83,24.41,5.44,37.18,7.5c24.99,4.02,51.61,17.13,62.31,18.63c5.88,0.82,23.55-2.49,28.78-1.11l30.53,8.03
			c8.73,2.3,17.34,4.21,26.05,5.66c5.07,0.85,10.04,3.14,15.34,3.33v91.67c-7.1,2.38-8.04,1.78-14.8,1.76l-102.68-0.26
			c-3.45-0.01-19.05-0.01-20.26,0.22c-3.54,0.68-6.46,0.02-9.91,0.02l-54.05-0.11l-139.06,0.17c-5.29,0.01-10.44,1.55-15.66,0.39
			c-1.59-0.36-2.98-0.24-4.82,0.01c-1.99,0.28-4.47-1.43-6.62-0.23c-2.75,1.52-7.16-1.19-7.95-0.76c-0.8,0.43-1.1,0.58-1.72,0.58
			l-60.03,0.05c-6.84,0.01-16.06-0.67-22.07,0.22c-5.65,0.84-10.92-0.18-16.69-0.19l-150.56-0.38c-1.76,0-2.96,1.79-5.03,0.66
			c-1.33-0.73-10.16,1.18-13.84,0.43c-1.47-0.3-2.9-1.34-4.51-0.67c-3.17,1.32-17.26-0.25-15.4-0.25l-270.46,0.11
			c-4.4,0-8.15,0.44-12.4,0.15l-9.84-0.65l-7.79-0.82c-6.87-0.72-9.74,0.08-15.69-0.81v-101.3l36.51-6.02l51.8-9.47l40.26-7.87
			c11.99-2.34,59.45-28.44,72.67-35.25c1.93-0.99,10.53-6.91,11.1-5.26c-4.48,3.51-8.6,6.45-12.38,10.6
			c-1.44-1.41,0.75-2.03,0.9-3.92c-2.41,0.86-1.95,3.97-3.49,5.86l-12.43,15.24c-2.5,2.54-5.17,4.92-7.8,7.88
			c0.56,1.87,8.3-8.49,7.8-7.88l20.26-20.64l11.74-10.61c1.1-1,3.57-1.92,4.87-2.19c7.26-1.5,12.66-5.06,21.38-7.71
			c-5.79,4.69-11.17,10.02-17.5,15.07c-2.09,1.67-4.07,2.3-6.56,2.54c3.81,1.07,6.86-1.46,9.59-3.68l17.66-14.41
			c9.45,0.21,20.39,5.45,29.86,1.26c16.82-7.44,32.6-15.76,48.6-24.36c4.73-2.54,8.95-5.03,14.22-6.97
			c7.57-2.78,24.41,5.12,30.92,8.87c16.49,15.5,32.69,30.62,50.83,44.3c1.64,1.24,2.63,3.62,5.46,3.68
			c-1.57-2.35-3.85-2.55-5.7-4.23c-15.19-13.76-30.65-26.05-45.33-41.46c16.24,6.19,31.14,14.31,46.54,22.3
			c20.79,10.79,40.72,21.34,62.19,29.59l-71.86-36.34c-18.3-9.26-43.62-22.5-62.84-28.4c-4.63-1.42-8.95-1.22-13.24,0.79
			c-7.12,3.34-13.49,6.95-20.43,10.69c-13.27,7.16-26.28,13.73-40.12,19.91c-11.56,5.16-24.49-6.2-39.07,1.2
			c-11.48,5.82-12.71,2.95-26.09,10.36l-25.4,14.06c-17.6,9.74-34.97,20.08-54.28,26.71c-14.4,4.95-29.26,6.33-44.61,9.19
			L19.8,256.04c-5.2,0.97-10,1.38-14.66,2.61v-55.31c19.77-8.35,40.03-17.2,60.01-27.77c-1.56,4.53-8.65,8.71-9.7,10.47
			c-1.95,3.26-6.12,4.71-7.67,8.12c3.79-2.38,6.31-5.49,9.14-8.12l3.7-3.43c2.91-2.7,4.96-6.77,8.34-8.72l34.09-19.7l25.38-16.94
			c2.85-1.9,5.57-2.55,9-1.14l18.11,7.45c6.86,2.82,13.22,2.6,19.94-0.76c13.82-6.92,26.57-14.87,38.71-23.94
			c6.82-5.09,12.59-10.58,18.69-16.29c3.44-3.22,7.14-6.03,11.87-7.74c5.1-1.84,9.25-4.24,15.12-5.42
			c-6.36,4.94-10.46,10.28-14.95,16.06c-4.17,5.36-9.3,9.93-13.89,15.09c-1.82,2.04-4.36,3.01-5.25,5.59
			c1.74-0.3,2.6-1.86,3.57-2.89c8.49-9.07,17.41-17.52,26.79-26.45c-2.69-0.97-2.93,1.94-4.93,2.38c4.27-4.45,5.21-7.38,11.08-8.45
			c-1.65,6.01,10.66-11.12,12.13-10.96c-4.05,7.1-8.22,13.88-12.83,21.01l-14.82,22.86c-1.69,2.61-4.24,4.61-5.67,7.77
			c-1.12,2.48-6.62,6.82-8.93,9.14c2.28,0.27,2.67-1.67,3.86-2.68l11.24-9.5l27.36-24.5c0.35-0.83,0.99-0.38,0.82,0.33l-32.39,34.21
			l-25.34,26.95c-8.49,9.03-17.39,15.78-27.8,21.9c-17.54,10.3-34.63,21.26-51.46,33.64c-1.37,1.01-3.65,1.02-2.76,2.91
			c1.73-1.93,3.1-2.7,4.72-3.81c19.2-13.08,38.74-25.06,58.2-36.84c5.42-3.28,9.47-7.18,14.17-11.85
			c23.67-23.56,47-47.14,67.89-71.9c3.83-2.36,5.19-6.69,9.42-9.49c-4.47,6.76-7.76,13.35-11.96,20.07l-9.13,14.62
			c1.92-0.72,2.32-2.49,2.95-3.84c1.09-2.34,3.37-4.17,4.88-6.76c5.97-10.2,12.14-19.66,19.59-29.25
			c-0.99,5.41-3.83,10.11-6.95,15.31c-8.33,13.89-17.1,26.79-25.96,40.19l-16.03,24.23c-1.68,2.54-3.73,4.67-4.92,7.62
			c2.56-1.95,3.99-4.43,5.7-6.88l26.3-37.86l20-30.88l21.79,21.33c0.78,0.76,0.86,2.03,2.18,2.22c0.45-1.64-1.33-1.91-1.98-2.62
			c-3.08-3.37-5.3-7.18-7.68-11.32l-8.2-14.28c-1.29,2.12,1.13,3.33,1.79,4.74c2.14,4.58,5.13,8.12,7.01,13.02
			c-1.82-1.27-3.09-2.69-4.72-4.32l-9.79-9.75l2.71-6.79c0.87,1.5,1.62,2.13,2.7,2.58c-3.36-5.01-2.39-11.5,2.15-15.87
			c2.08-2.01,2.89-4.6,4.97-6.04c-0.44,1.47,6.92,10.89,6.31,10.63c0.26,0.11,0.68-0.02,1.12,0.01c-0.41,0.61,0.62,2.08,1.19,1.81
			c0.96-0.75-0.64-1.65-1.19-1.81c-2.27-3.49-4.18-7.88-7.44-10.64c0.27-0.91-0.28-2.12-1.16-2.8c-0.76,2.04-1.42,3.31-2.58,4.66
			l-8,9.31l-20.95,20.2c-10.16,9.8-19.41,19.61-30.69,28.63c1.8-5.68,6.28-9.34,9.35-14.06c4.53-6.98,10.14-12.65,15.33-19.32
			l29.1-37.45c1.05-1.35,2.08-2.54,3.65-3.39l12.33,15.49c0.61-0.44,0.25-1.27,0.32-1.96c0.62-0.4,1.11,1.54,1.53,0.22
			c0.09-0.29-0.46-0.81-0.55-1.04l-2.52-6.49c-0.24-0.61-1.01-1.05-0.64-1.44c0.87-0.91,7.8,6.18,8.34,7.28l-4.09-2.43l5.4,6.13
			c-0.05,3.2,4.7,9.3,6.73,12.61c2.59-0.47-6.04-8.69-4.67-10.77c3.74,3.13,9.31,9.5,12.85,13.36
			c9.29,10.11,18.38,18.58,29.99,27.77c-5.75,0.01-10.92,0.71-16.07,2.6c-14.48,5.29-18.5,2.73-27.54,11.6
			c-11.72,11.49-24.27,21.11-37.78,30.61c-5.63,3.96-11.4,6.85-16.46,11.38l24.74-15.2c-2.01,3.06-6.24,5.02-7.75,8.49
			c-0.57,0.08-2.17,1.11-1.21,1.79c0.82,0.38,1.23-1.31,1.21-1.79c1.3-0.58,2-2.15,3.62-2.6c-4.62,7.34-11.41,12.55-16.89,19.24
			c7.42-6.25,13.4-13.4,20.34-20.12l13.54-13.1l21.02-19.36c1.85-1.71,4.03-3.4,6.54-3.99c6.85-1.61,13.16-3.47,19.73-5.83
			c2.83-1.01,5.39-1.18,7.98-1.05c-1.07-1.23-0.48-1.45,0.75-1.34c1.73-0.57,3.14,0.83,4.4,1.28c4.22-2.72,7.1-6.86,10.29-10.58
			l32.4-37.81c7.05-8.23,18.74-11.88,24.6-20.2c-2.94,6.66-8.04,8.63-11.71,12.94c13.95-8.25,13.87-17.11,24.12-26.79l-6.37,16.16
			c-4.12,10.47-10.16,20.22-16.65,29.97c-5.77,8.66-13.74,15.26-23.06,20.57c-1.58,0.9-3.25,1.89-4.38,3.4
			c8.51-3.6,21.1-12.76,27.02-20.81c9.4-12.8,15.93-26.24,20.94-40.17c1.92-5.34,3.62-10.67,7.42-15.31
			c1.4,3.01,3.81,6.42,3.06,9.58c-2.14,9.05-5.4,17.64-8,26.42c-0.56,1.87-1.86,3.84-1.18,6.23c2.88-10.3,6.84-19.95,10.38-31.32
			l2.39,4.65c-4.27,8.76-8.21,17.16-11.35,26.21c-4.85,13.97-12.41,25.92-21.95,37.71c3.54-1.56,4.85-4.77,6.92-7.38
			c15.91-20.07,16.28-33.28,27.58-55.3c9.58,6.1,13.51-1.34,18.51-4.26L475.61,47.39z"/>
		<g>
			<path fill="#15152C" d="M190.07,223.23c0.5-0.61-7.24,9.74-7.8,7.88C184.9,228.15,187.58,225.77,190.07,223.23z"/>
			<g>
				<path fill="#5C6570" d="M705.73,229.33v-0.67c0.52,1.06,3.71,1.2,2.75,3.85L705.73,229.33z"/>
				<g>
					<path fill="#15152C" d="M190.07,223.23L202.5,208c1.54-1.88,1.08-5,3.49-5.86c-0.15,1.89-2.34,2.5-0.9,3.92
						c3.78-4.15,7.9-7.09,12.38-10.6c-0.56-1.66-9.17,4.26-11.1,5.26c-13.22,6.81-60.68,32.9-72.67,35.25l-40.26,7.87l-51.8,9.47
						l-36.51,6.02v-0.67c4.66-1.23,9.46-1.65,14.66-2.61l71.39-13.29c15.34-2.86,30.21-4.24,44.61-9.19
						c19.31-6.63,36.68-16.97,54.28-26.71l25.4-14.06c13.38-7.41,14.61-4.54,26.09-10.36c14.58-7.4,27.5,3.96,39.07-1.2
						c13.84-6.18,26.85-12.75,40.12-19.91c6.94-3.74,13.3-7.36,20.43-10.69c4.29-2.01,8.62-2.21,13.24-0.79
						c19.22,5.91,44.54,19.15,62.84,28.4l71.86,36.34c-21.48-8.26-41.4-18.81-62.19-29.59c-15.4-7.99-30.3-16.11-46.54-22.3
						c14.68,15.42,30.14,27.7,45.33,41.46c1.85,1.68,4.14,1.88,5.7,4.23c-2.83-0.05-3.82-2.44-5.46-3.68
						c-18.14-13.68-34.34-28.8-50.83-44.3c-6.51-3.74-23.35-11.64-30.92-8.87c-5.28,1.93-9.49,4.43-14.22,6.97
						c-16.01,8.6-31.78,16.92-48.6,24.36c-9.46,4.19-20.41-1.05-29.86-1.26l-17.66,14.41c-2.73,2.22-5.78,4.75-9.59,3.68
						c2.49-0.24,4.47-0.87,6.56-2.54c6.33-5.05,11.7-10.38,17.5-15.07c-8.72,2.65-14.12,6.2-21.38,7.71
						c-1.29,0.27-3.77,1.19-4.87,2.19l-11.74,10.61L190.07,223.23z"/>
					<path fill="#101223" d="M275.44,104.2c0.82-0.66,1.69-1.1,2.04-2.16c0.41-1.22,2.18-2.03,3.16-2.63
						c-20.89,24.76-44.22,48.34-67.89,71.9c-4.7,4.68-8.75,8.57-14.17,11.85c-19.46,11.78-39,23.76-58.2,36.84
						c-1.62,1.1-2.99,1.88-4.72,3.81c-0.89-1.89,1.39-1.9,2.76-2.91c16.83-12.38,33.92-23.34,51.46-33.64
						c10.42-6.12,19.32-12.87,27.8-21.9l25.34-26.95L275.44,104.2z"/>
					<path fill="#171D30" d="M154.28,171.48c-4.24-0.41-7.38,0.61-10.63,2.44l-41.39,23.35l37.95-23.19
						c5.26-3.22,10.61-3.14,15.94-5.42c9.93-4.25,17.76-11.94,27.39-16.89c4.44-2.28,6.74-6.56,12.05-7.57l-43.97,30.05
						c-1,0.68-1.51,3.03-3.83,1.85C150.51,174.42,152.55,173.5,154.28,171.48z"/>
					<path fill="#21242F" d="M437.4,174.62l-52.08-34.78c-1.6-1.07-3.24-1.36-3.88-3.14l52.95,35.36
						C435.34,172.7,436.86,172.74,437.4,174.62z"/>
					<path fill="#1C2443" d="M298.09,70.72c-0.32-2.53,3.09-5.18,3.08-8.74l-3.83,5.47c0.68-3.67,1.95-7.25,5.26-9.8
						C303.45,62.87,300.68,67.1,298.09,70.72z"/>
					<path fill="#A4AFBC" d="M323.69,72.76c-1.38,2.08,7.26,10.3,4.67,10.77c-2.04-3.3-6.79-9.41-6.73-12.61
						C322.75,70.99,323.15,72.28,323.69,72.76z"/>
					<path fill="#778798" d="M314.89,80.05c-0.44-0.03-0.86,0.1-1.12-0.01c0.61,0.26-6.75-9.16-6.31-10.63
						C310.71,72.17,312.62,76.56,314.89,80.05z"/>
					<path fill="#858EA1" d="M310.35,84.59c-2.51-2.15-4.79-4.79-6.4-8.4C306.79,78.1,308.6,81.06,310.35,84.59z"/>
					<path fill="#1C213F" d="M298.09,70.72c0.22,1.68-2.03,2.43-2.19,4.07c0.34,1.01-0.57,1.9-1.24,0.84
						C295.75,73.31,295.67,70.99,298.09,70.72z"/>
					<path fill="#778798" d="M314.89,80.05c0.55,0.16,2.15,1.05,1.19,1.81C315.51,82.13,314.48,80.66,314.89,80.05z"/>
				</g>
				<g>
					<path fill="#474F5E" d="M986.99,268.65v0.67c-5.31-0.19-10.27-2.49-15.34-3.33c0.48,0.1,0.84-0.23,0.73-0.67L986.99,268.65z"/>
					<path fill="#15152B" d="M607.11,153.34l-8.96-4.98c2.99,3.5,5.88,7.69,10.48,10.09l13.35,6.95
						C621.29,161.68,610.72,157.02,607.11,153.34c1.17,1.02,3.13,1.31,4.83,2.27c-5.38-6.67-11.8-12.44-18.56-18.39l-9.31-8.19
						c4.83,1.29,6.95,5.28,10.52,8.39c9.29,8.1,17.78,15.92,26.21,24.75c7.79,8.16,16.07,14.65,26.43,19.81l23.71,11.81
						c21.23,10.58,30.41,22.87,53.72,34.21c19.05,9.27,30.13-10.3,59.29-3.14c13.63,3.35,26.86,6.12,40.79,8.59
						c9.2,1.63,17.55,3.54,26.36,6.74l33.85,12.29c1.53,0.56,25.09-2.69,29.43-1.57l35.87,9.32c7.5,1.95,14.8,3.42,22.12,5.09
						c0.11,0.44-0.25,0.76-0.73,0.67c-8.71-1.45-17.31-3.37-26.05-5.66l-30.53-8.03c-5.23-1.38-22.89,1.94-28.78,1.11
						c-10.69-1.5-37.32-14.61-62.31-18.63c-12.77-2.05-24.68-4.66-37.18-7.5c-4.84-1.1-9.62-2.64-14.71-2.59
						c-18.08,0.18-30.59,10.89-43.69,5.85c-9.17-3.53-17.44-8.3-25.62-13.94l-20.49-14.12c5.79,9.2,13.02,16.87,20.88,23.97
						c0.9,0.81,2.02,1.12,2.55,2.21v0.67c-8.45-9.79-18.64-18.84-27.36-28.94c-11.68-8.05-34.71-16.36-45.76-24.97
						c-4.87-3.79-9.33-7.62-15.23-9.96c8.15,10.64,19.02,17.63,31.32,23.48c2.34,1.11,5.45,0.65,6.68,3.15
						c-14.26-4.55-27.21-12.43-37.31-23.95c-3.53-4.03-6.72-5.92-11.57-8.37c-4.59-2.32-7.19-7.52-11.42-11.16
						c-17.96,21.08-32.19,30.5-46.41,54.07h-0.73c10.48-20.74,30.14-36.07,46.2-55.54c-1.9-1.54-5.94-4.23-8.73-3.28
						c-17.44,5.94-33.07,19.24-46.97,30.91c-7.03,5.9-14.74,9.26-23.32,12.65c-5.98,2.36-11.08,5.92-16.74,8.72
						c-1.2,0.59-1.79,3.1-3.43,1.24c9.06-6.24,18.63-10.64,28.63-15.05c4.97-2.19,9.1-5.31,13.08-8.57l17.76-14.52
						c8.17-6.68,16.83-11.87,27.14-16.19l-28.28-13.84c-10.72-5.25-9.36-0.89-16.26-5.23l-10.51-6.62
						c-0.61,0.16-2.28,0.46-2.85,1.28c-8.06,11.49-18.12,20.8-29.96,29.21c-2.5,1.78-3.7,3.63-6.39,4.19
						c0.97-2.27,3.85-2.76,6.05-4.44c9.66-7.38,18.57-14.84,25.45-24.08c2.01-2.69,3.9-4.94,6.32-7.44
						c2.17,1.18,4.16,1.62,5.83,2.81c4.76,3.4,15.32,5.06,24.87,9.48c9.37,4.33,18.16,9.33,27.78,13.18
						C591.46,140.8,602.03,148.92,607.11,153.34z"/>
					<path fill="#0E101D" d="M983.9,253.26c-27.87-9.68-55.21-19.31-84.16-28.15c-16.1-4.92-31.41-10.09-45.88-17.59
						c12.52,4.63,23.85,9.42,36.6,13.42C922.38,230.93,953.55,240.45,983.9,253.26z"/>
					<path fill="#62687A" d="M587.39,227.62c-7.28,1.97-13.76,4.67-21.76,5.59c6.04-2.28,12.48-3.71,19.06-5.57
						c13.19-3.73,25.31-8.7,37.79-14.08c5.23-2.25,9.78-4.96,15.44-6.22c-6.14,3.53-12.5,5.85-19.12,8.81
						C608.59,220.71,598.51,224.61,587.39,227.62z"/>
					<path fill="#232E3D" d="M539.17,93.37c1.58-0.74,1.25,0.9,2.08,1.73c7.07,7.08,14.79,13.91,24.07,18.36
						c7.53,3.6,14.38,7.68,18.58,14.71c-4.84-5.08-9.46-8.99-15.61-12.04C556.86,110.48,546.79,102.87,539.17,93.37z"/>
					<path fill="#293546" d="M702.38,137.5c1.49,2.3,3.53,4.27,5.65,6.64c11.09,12.38,24.2,20.92,38.79,28.67
						c-16.19-6.04-29.47-17.37-40.69-29.69c-1.29-1.42-5.45-4.68-5.62-7.05C701.04,136.53,701.88,136.73,702.38,137.5z"/>
					<path fill="#13172C" d="M733.27,104.79c0.61,0.99-0.58,2.69,0.95,3.25c-0.64,1.8,0.16,3.52,2.26,4.77
						c-0.26-2.62,0.13-4.17,0.29-5.99c0.33,0.06,0.65,0.23,0.9-0.06c0.36,2.31-0.66,5.42,0.52,7.74
						c3.69,6.47,9.37,11.69,14.04,17.72c1.7-0.1,0.52,0.71,0.02,0.71c-0.28,0-19.72-21.61-21.72-24.43
						C732.08,107.14,731.9,105.26,733.27,104.79z"/>
					<path fill="#101624" d="M577.73,191.87c8.54-9.9,18.15-19.4,25.22-30.9c0.93-0.67,1.87-1.14,2.28-0.87
						C597.29,172.16,588.27,182.68,577.73,191.87z"/>
					<path fill="#17172E" d="M511.4,62.8c-5.32,8.28-10.92,16.33-17.3,24.22c0.04-3.23,2.79-5.05,4.41-7.47l12.69-18.91
						c0.28-0.11,0.62-0.07,0.75-0.23c-0.67,0.48,1.01,1.01,0.65,1.2C511.89,61.98,511.68,62.36,511.4,62.8z"/>
					<path fill="#1B1D3B" d="M454.42,83.38c-0.02-1.44,1.18-2.64,2.22-4.02c7.58-10.08,13.7-20.5,18.44-31.87
						c0.14-0.33,0.33-0.26,0.53-0.09c-0.21,0.71-0.05,1.7-0.55,2.76c-5.02,10.81-10.71,21.17-18.21,30.73
						C456.04,81.91,455.48,83.12,454.42,83.38z"/>
					<path fill="#8F939F" d="M417.13,147.45c2.68,2.38,5.92,3.73,7.29,7.13c-8.72-6.27-14.88-14.95-21.91-23.09
						c-0.98-1.14-2.55-2.12-2.64-3.71c2.63,0.89,2.32,3.07,3.8,4.55C408.56,137.21,411.85,142.75,417.13,147.45z"/>
					<path fill="#526072" d="M673.05,101.3c-0.05-3.94-0.76-8.28,0.19-12.25c1.61-6.7-2.79-11.67-3.14-17.13
						c3.89,6.08,5.27,13.25,3.74,20.32C673.22,95.05,674.22,97.67,673.05,101.3z"/>
					<path fill="#4F607B" d="M660.15,84.11c-0.76-1.37-0.7-3.09-0.17-4.48l2.87-7.54c1.2-3.16,1.08-6.96,4.02-9.53
						c-0.01,2.68-1.87,4.3-2.19,6.83C664.3,72.33,660.42,78.81,660.15,84.11z"/>
					<path fill="#546889" d="M513.82,60.89c-0.34,1.04,0.21,1.69,1.25,2.5c2.8,2.17,1.02,5.23-0.69,7.25
						c-1.19,1.41-0.61,3.2-2.2,4.16c-0.39-3.91,4.65-7.59,2.63-10.4c-0.72-1-2.01-1.65-3.42-1.6c0.28-0.43,0.49-0.81,1.2-1.19
						c0.37-0.2-1.31-0.73-0.65-1.2c0.25-0.18,0.49-0.52,0.26-0.84C512.83,60.03,513.28,60.43,513.82,60.89z"/>
					<path fill="#727F92" d="M658.67,75.24c-0.89-2.64-2.43-13.96-1.59-15.88c1.49,3.65,0.81,7.1,1.45,10.33
						C658.91,71.57,659.43,73.32,658.67,75.24z"/>
					<path fill="#1B1D3B" d="M520.89,89.38c-1.66,4.05-3.78,8.54-8.11,11.39l6.2-9.23C519.54,90.7,519.8,89.32,520.89,89.38z"/>
					<path fill="#454F66" d="M696.3,80.67c0.95,4.78,3.64,8.98,5.78,13.38h-0.73c-3.02-3.95-5.22-9.1-5.91-14
						C695.96,79.83,696.56,80.19,696.3,80.67z"/>
					<path fill="#73839C" d="M730.34,98.97c0.31-0.21,0.76-0.16,1.02-0.27l-1.57,7.33c0.41,0.87-0.42,1.87-0.58,0.76
						c-0.97-1.61-2.9-2.74-2.09-4.85c0.83,0.74,0.83,1.7,1.66,2.79C729.41,97.42,730.23,102.36,730.34,98.97z"/>
					<path fill="#30446B" d="M524.55,79.38c-0.37-0.03-0.71,0.16-1.41-0.14l4.26-10.57C527.67,72.48,524.81,75.63,524.55,79.38z"/>
					<path fill="#838C95" d="M548.66,202.67c-1.24,2.05-2.42,4.16-4.22,6.16c0.06-2.74,2.03-4.66,3.49-6.16H548.66z"/>
					<path fill="#15152B" d="M487.3,152.02c-0.91,2.13-3.89,3.88-6.66,4.58C482.68,155.04,484.8,152.54,487.3,152.02z"/>
					<path fill="#151429" d="M667.01,153.35c-1.12-0.18-4.95-5.17-3.79-4.6C664.63,149.64,667.04,151.35,667.01,153.35z"/>
					<path fill="#DCE0E6" d="M662.24,94.78c-0.16-1.56-1.32-2.86-0.88-5.31C662.18,90.94,663.31,92.66,662.24,94.78z"/>
					<path fill="#6A747E" d="M577.73,191.87c-0.95,1.11-1.2,3.02-3.62,2.74C575.27,193.48,576.13,191.95,577.73,191.87z"/>
					<path fill="#1B1D3B" d="M454.42,83.38c0.01,0.87-0.27,2.09-1.8,2.96C452.28,84.99,453.26,83.67,454.42,83.38z"/>
					<path fill="#E5E7EB" d="M649.79,74.42c-0.39-0.2-0.63-1.2-1.3-1.86c0.81-0.9,1.12-0.05,1.41,0.19
						C650.37,73.15,650.55,74.39,649.79,74.42z"/>
					<path fill="#1B1D3B" d="M540.04,78.43c0.32-0.68,0.78,0.23,0.98,0.3c0.47,0.16,0.48,1.23,0.01,1.24
						C540.69,79.97,539.65,79.27,540.04,78.43z"/>
					<path fill="#232E3D" d="M539.17,93.37c-0.8-0.28-2.03-1.28-1.25-1.8C538.83,91.28,539.3,92.85,539.17,93.37z"/>
				</g>
			</g>
		</g>
	</g>
	<g>
		<g>
			<path fill="#FFFFFF" d="M986.99,182.52v50.14c-19.87-7.07-40.12-14.24-61.94-20.77c-12.69-3.8-23.32-8.64-34.98-14.07
				l-53.77-25.04c-10.55-4.91-20.41-10.26-29.46-17.65c6.5-1.87,12.64-4.03,18.72-7.26l21.17-11.25c5.25-2.79,10.21-5.35,16.09-6.81
				c1.65-0.41,3.33,0.57,4.52,1.44c6.4,4.67,12.72,9.15,19.52,13.53c6.38,4.11,12.79,5.36,20.57,5.85
				c17.08,1.08,13.73,3.68,19.73,12.62l10.84,16.13c2.51,3.74,9.03,13.52,12.71,15.93l-10.73-15.09c-2.84-3.99-5.16-8.2-7.02-12.84
				l-3.84-9.56c5.56,1.77,9.95,4.33,14.96,6.72C958.18,171.25,972.16,177.97,986.99,182.52z"/>
			<path fill="#C0C5D0" d="M859.84,136.36c3.53-2.48-1.36,13.73-2.84,13.77C857.38,145.41,860.55,142.54,859.84,136.36z"/>
		</g>
		<path fill="#FDFDFE" d="M695.44,80.05c0.69,4.89,2.88,10.05,5.91,14c-0.28,1.6,1.29,3.2,1.96,4.83
			c3.35,8.1,6.93,15.72,11.29,24.03c-7.52-5.35-14.34-10.88-19.12-18.12c-1.71-2.59-4.78-5.08-4.89-8.08l-0.57-15.37l-1.22,6.85
			c0.42,1.48-0.98,1.36-0.46-0.04l-5.85-20.2L695.44,80.05z"/>
		<path fill="#F2F2F5" d="M607.11,153.34c3.61,3.67,14.18,8.34,14.86,12.06l-13.35-6.95c-4.59-2.39-7.48-6.58-10.48-10.09
			L607.11,153.34z"/>
		<path fill="#1B1D3B" d="M512.12,53.39c-1.37-0.93-5.15-8.55-5.01-10.77C508.23,44.2,512.51,52.32,512.12,53.39z"/>
		<g>
			<path fill="#1C1E3C" d="M569.15,96.61c-0.19,0.47,0.15,0.86,0.69,0.76c-0.09,0.39,0.65,1.14,1.09,1.24
				c0.32,0.07,0.8-0.61,1.1-0.73c6.4-2.61,8.28,6.65,19.08-3.68c3.7-3.53,8.2-4.15,12.99-5.65c6.67-2.09,11.3-7.23,17-11.05
				c8.28-5.55,16.15-10.66,23.12-17.56c3.04-3,5.85-5.83,9.11-8.29c5.28-4,10.33,4.12,16.53,7.75c0.06,0.68,0.94,1.1,1.52,1.4
				c0.33,0.17,0.38,0.19,0.73,0.04c0.7,0.95,3.15,0.9,3.77-0.11c1.83-0.44,3.82,0.05,5.16,1.89c4.49,6.14,10.24,10.46,16.02,15.32
				c8.01,6.73,15.27,13.7,24.52,18.97c7.85,4.47,7.55-5.32,16.98,1.76c1.46,1.1,2.19,0.7,3.75,0.11c1.28-0.48,4.29-1.36,5.67-0.61
				c3,1.61,4.06,4.49,5.85,6.53c0.27,0.31,0.27,0.91,0.94,0.64c6.9,4.17,5.77-0.79,12.94,9.53c10.22,14.71,22.3,27.62,37.45,38.78
				c19.31-4.69,37.42-18.87,53.82-24.92c3.69-1.36,6.8-1.12,9.9,1.08c6.4,4.53,12.58,9.13,19.42,13.48
				c13.3,8.47,21.14,2.05,35.89,9.23l29.74,14.47c10.85,5.28,21.72,9.98,33.05,13.63v1.91c-14.83-4.55-28.81-11.27-42.89-17.98
				c-5.01-2.39-9.41-4.95-14.96-6.72l3.84,9.56c1.86,4.64,4.18,8.84,7.02,12.84l10.73,15.09c-3.68-2.4-10.2-12.19-12.71-15.93
				l-10.84-16.13c-6.01-8.94-2.65-11.54-19.73-12.62c-7.79-0.49-14.19-1.74-20.57-5.85c-6.81-4.39-13.12-8.86-19.52-13.53
				c-1.19-0.87-2.87-1.85-4.52-1.44c-5.88,1.46-10.84,4.02-16.09,6.81l-21.17,11.25c-6.08,3.23-12.22,5.39-18.72,7.26
				c9.05,7.39,18.91,12.73,29.46,17.65l53.77,25.04c11.66,5.43,22.29,10.27,34.98,14.07c21.82,6.53,42.07,13.69,61.94,20.77v0.67
				c-2.23,0.11-4.31-1.15-6.57-1.91l-33.58-11.25c-14.45-4.84-28.51-8.18-42.37-14.43l-55.49-25.01
				c-10.24-4.61-19.7-8.92-29.07-14.48c-22.09-13.1-40.12-30.38-54.64-50.57c1.38,18.86,7.86,17.95,17.48,32.1
				c-4.97-5.49-10.58-10.67-14.72-17.15c-3.63-5.68-3.08-12.33-5.69-18.85c-2.43,5.97,3.53,22.3,8.63,26.98
				c0.83,1.28-0.48,1.89-0.77,0.69c-6.1-7.29-11.37-20.21-9.61-29.9c-8.44-0.49-8.65-4.75-13.04-9.14
				c-1.82-1.82-4.23,7.95-8.34,7.66c2.19-2.8,5.06-4.54,6.06-7.61c-2.62,0.47-4.56,1.27-7.27,0.97c0.71,1.95-0.59,3.73-0.34,5.34
				c-0.25,0.28-0.56,0.12-0.9,0.06c0.17-1.99,0.51-4.01-0.09-6.44c-1.79,2.75-1.71,5.25-2.45,7.65c-1.53-0.56-0.33-2.26-0.95-3.25
				c-0.02-1.7,1.22-3.85,0.73-5.85c-0.3-1.24-2.05-0.49-2.65-0.24c-0.26,0.11-0.71,0.06-1.02,0.27c-3.14,2.09-6.12,1.74-9.54-0.12
				c-9.29-5.04-16.36-12.29-24.5-18.19c0.26-0.47-0.34-0.84-0.86-0.62l-12.94-12.1l5.85,20.2c-0.52,1.4,0.88,1.52,0.46,0.04
				l1.22-6.85l0.57,15.37c0.11,3,3.18,5.49,4.89,8.08c4.77,7.24,11.59,12.77,19.12,18.12c-4.36-8.31-7.94-15.93-11.29-24.03
				c-0.67-1.63-2.24-3.23-1.96-4.83h0.73l11.59,23.86c2,4.12,11.15,16.92,11.82,15.77c-0.16,0.28-0.5,0.59-0.74,0.03
				c-0.19-0.43-0.68-0.71-1.17-1.14l-13.53-11.76c-7.36-6.4-14.3-12.77-19.42-21.16c-1.82,4.2-0.36,7.82-1.22,11.77
				c-1.86-4.34,0.87-9.4-0.37-14.01c-2.22-8.22-13.22-21.43-11.22-34.59c-8.62,3.5-13.18-6.27-20.99-10.56
				c-3.48,1.54-5.6,4.06-7.83,6.6c2.14,8.97,5.79,16.9,10.18,25.34c-0.39,0.8-1.16,0.1-1.39-0.2c-0.35-0.44-0.18-1.26-0.46-1.73
				c-4.03-6.79-6.57-13.94-9.06-21.86c-1.41-0.52-1.96,2.01-2.13,2.49c-1.29-1.13-3.22,1.56-3.06,2.61c-1.6,0.18-2.95,1.84-3.09,3.2
				c-0.58,0.42-1.93,0.9-1.46,2c-0.44,0.19-2.24,1-1.17,1.83c0.66,0.29,1.25-1.34,1.17-1.83c1.44,0.09,0.96-1.53,1.46-2
				c0.95-0.85,3.3-1.82,3.09-3.2c0.83-0.1,1.13-2.31,2.58-0.74c-2.13,1.52-12.47,13.08-12.75,15.93c0.76-0.66,0.78-1.47,1.76-1.83
				c0.77-0.28,1.73,0.24,2.53,1.1l14.6,15.76c1.55,0.41,4.16-0.26,5.67,0.98c9.76,8.01,24.79,25.46,33.2,30.32
				c9.86,5.69,18.58,11.62,27.49,18.92c12.84,10.52,25.56,20.19,39.39,29.44c13.96,9.33,27.01,5.39,34.99,9.98
				c6.36,3.66,11.17,8.22,16.88,12.8c16.58,13.3,33.88,24.17,52.24,34.5c-22.13-9.54-41.41-23.17-60.09-37.99
				c-3.78-3-6.81-6.27-11.2-7.98c-8.2-3.18-19.78-0.75-31.58-7.8c-9.53-5.69-18.35-12.01-27.51-18.18
				c-2.99-2.01-5.01-4.13-7.42-6.64c-3.86-4.02-16.53-13.26-21.47-16.58c-0.5-0.77-1.34-0.97-1.87-1.45
				c-1.38-1.23-2.94-2.41-4.93-3.44c-13.5-6.98-18.98-15.53-30.47-25.46l-0.92,6.9c-0.54,4.06,1.47,7.91,3.46,11.34l7.85,13.51
				c-6.91-7.29-8.8-13.61-12.76-21.35c-2.96-5.79,1.25-15.09-5.51-17.38l-0.81,11.93c-0.99-4.59,0.03-9.03-0.39-14.11
				c-7.57,1.45-7.4-3.7-12.2-6.88l8.03,16.75c2.36,4.92,6.92,9.92,8.34,16.64c-5.27-4.42-7.94-10.06-10.98-15.6
				c-4.78-8.68-9.54-17.22-13.5-26.47c-6.42,7.08-10.01,13.61-18.67,17.66c4.95,0.56,7.71,1.37,9.73,4.74l7.43,12.37
				c7.65,12.74,21.84,19.03,29,31.56c-4.87-3.07-10.41-12.8-14.81-13.73c7.31,7.31,13.65,13.98,19.51,21.63
				c0.3,0.4,0.55-0.99,0.67-1.34c5.51,6.32,10.24,13.26,16.42,19.52c3.81,3.86,7.03,8.07,11.24,11.66c1.79,1.53,3.04,3.15,4.29,4.79
				c-2.52,0.13-2.56-1.98-3.48-2.87c-10.01-9.61-19.33-19.48-28.62-29.87c-7.48-8.37-14.57-16.41-22.67-24.55
				c-6.81-6.84-12.11-13.77-16.74-21.91c-1.57-2.76-2.95-6.09-5.63-8.37c-2.79-2.37-7.76-1.36-10.89-1.33l-9.04,16.43
				c1.25-6.05,5.73-10.23,7.96-16.21l-22.87,16.03l12.56,10.9c1.79,0.09,3.67-0.73,5.42-0.37c12.16,8.64,23.09,17.83,33.98,27.67
				l24.83,22.43c1.67,1.51,3.86,2.18,4.89,3.95c-2.46,0.45-2.82-1.57-3.93-2.52l-26.47-22.54c-10.86-9.24-21.38-18.1-32.84-26.67
				c-0.96-0.72-3.32-0.48-3.37,0.41c1.64,2.71,5.12,3.81,6.02,6.79c-9.73-7.51-19.14-14.96-27.76-23.62
				c-8.3-8.34-14.84-17.39-22.14-26.42c-2.26-2.8-4.94-4.63-9.12-2.87c6.97,7.82,5.26,11.99,13.54,18.81
				c3.49,2.88,6.2,6.26,9.15,9.54c-6.33-5.2-12.46-10.89-19.39-16.93c-4.78-4.17-7.16-9.81-10.39-14.83
				c1.45-0.26,1.52,0.66,2.25,0.98c0.03,1.8,2.04,2.94,2.62,4.79c0.67-2.23-0.97-4.06-2.62-4.79c-0.01-0.3,0.46-0.33,0.58-0.5
				c0.41-0.62-14.35-15.49-15.96-17.8c-0.29-0.51-0.54-1.63-1.46-1.66c0.67-1.35-1.22-1.5-1.69-2.12
				c-4.6-6.11-8.55-12.81-14.57-18.43l-16.51-15.4c0.73,6.17,4.69,10.62,5.8,16c-4.62-4.37-6.03-11.35-7.73-17.57
				c-2.11,0.37-3.39,1.15-4.99,2.28l4.62,7.95c3.65,6.29,8.01,12.21,14.29,17.24c0.89-0.1-6.03-7.27-4.74-7.97
				c0.69-0.17,1.18,0.37,1.7,1.11l7.77,11.21c0.89-1.81-1.28-2.84-0.76-4.29c1.97,1.33,2.95,8.11,8.05,9.65
				c2.04,0.62,4.11-1.16,5.78-1.09c1.32-0.25,1.77,1.06,2.98,1.43c0.05,0.35-0.14,0.79,0.01,1.01c0.25,0.36,0.66,0.46,0.98,0.57
				c0.4,1.63,1.36,2.99,2.48,4.7c9.06,13.87,18.89,26.81,30.6,39.25c1.56,1.66,4.13,2.31,3.7,4.72
				c-7.77-8.29-15.72-15.88-24.93-22.68c-3.23-2.38-5.36-5.29-9.45-7.84c-2.2,4.18-5.29,7.24-8.12,10.51
				c-8.52,9.86-18,18.39-28.31,26.85l-31.85,26.12c-1.57,1.29-2.41,3.08-4.86,3.13c1.52-2.16,3.61-2.6,5.15-4.01
				c11.35-10.41,23.01-20.2,35.01-30.01c8.38-6.85,15.41-14.12,21.68-22.89c3.1-4.32,6.04-8.58,10.31-11.84
				c3.14-0.51,7.92,6.85,10.09,6.61c-4.26-5.55-7.98-10.29-11.1-16.34l-8.51,17.61c-0.22,0.46-0.43,0.87-0.93,0.51
				c0-2.31,3.41-6.32,3.66-10c0.7,1.02,6.31-12.63,2.86-10.7c-0.1-0.97,0.13-2.13-0.91-3.17l-5.4,11.87
				c-3.95,8.68-21.72,30.94-29.03,35.93c11.13-12.22,25.67-29.15,30.8-43.81c-8.71,7.73-13.02,13.28-21.68,21.37l-43.15,40.26
				c-1,0.93-1.04,2.95-3.5,2.85c0.52-0.65,1.17-1.91,2.08-2.77c16.69-15.66,31.9-32.1,48.35-48.32l17.9-17.65l-4.27,0.1
				c-1.9-1.15-3.19-3.1-4.78-4.43c-0.54-0.46-0.99-0.86-1.61-1.32c-5.98-4.5-11.71-9-16.5-15.7c-2.21,3.25-3.8,6.5-5.64,10.11
				c-8.2,16.12-16.41,31.46-25.7,46.88c-1.49-1.75,0.87-3.22,1.7-4.73l10-18.26l18.15-35.63l-5.91-10.94
				c-0.45,2.24,1,3.64-0.26,5.82c0.06,1.59-0.68,0.79-1.11-1.08c-0.74,0.99-0.8,2.38,0.77,3.35c0.48-1.15,0.8-2.8,2.67-3.32
				c-4.1,12.65-12.52,20.24-14.39,31.74c-0.28,1.74-0.69,3.55-1.82,5.02c0.1-4.49,2.41-8.18,2.62-12.4l0.57-11.42
				c0.08-1.61,0.44-3,0.45-4.97c-1.61-0.91-0.95,4.4-2.22,3.35l2.07-7.01c-5,2.92-8.93,10.36-18.51,4.26
				c-11.3,22.02-11.67,35.24-27.58,55.3c-2.07,2.61-3.38,5.82-6.92,7.38c9.54-11.79,17.1-23.73,21.95-37.71
				c3.14-9.04,7.08-17.45,11.35-26.21l-2.39-4.65c-3.54,11.37-7.5,21.02-10.38,31.32c-0.68-2.39,0.62-4.36,1.18-6.23
				c2.61-8.78,5.86-17.37,8-26.42c0.75-3.16-1.66-6.57-3.06-9.58c-3.8,4.65-5.5,9.97-7.42,15.31
				c-5.01,13.93-11.55,27.37-20.94,40.17c-5.92,8.05-18.5,17.21-27.02,20.81c1.13-1.5,2.8-2.5,4.38-3.4
				c9.32-5.31,17.29-11.92,23.06-20.57c6.49-9.74,12.53-19.49,16.65-29.97l6.37-16.16c-10.25,9.68-10.17,18.54-24.12,26.79
				c3.67-4.31,8.76-6.27,11.71-12.94c-5.86,8.32-17.54,11.96-24.6,20.2l-32.4,37.81c-3.19,3.72-6.07,7.86-10.29,10.58
				c-1.26-0.45-2.67-1.85-4.4-1.28c-1.23-0.11-1.83,0.11-0.75,1.34c-2.59-0.13-5.16,0.03-7.98,1.05
				c-6.57,2.36-12.88,4.23-19.73,5.83c-2.52,0.59-4.69,2.28-6.54,3.99l-21.02,19.36l-13.54,13.1c-6.94,6.72-12.92,13.87-20.34,20.12
				c5.47-6.69,12.27-11.9,16.89-19.24c-1.62,0.45-2.32,2.02-3.62,2.6c1.51-3.47,5.74-5.43,7.75-8.49l-24.74,15.2
				c5.05-4.53,10.82-7.41,16.46-11.38c13.51-9.5,26.06-19.12,37.78-30.61c9.04-8.86,13.06-6.31,27.54-11.6
				c5.15-1.88,10.32-2.58,16.07-2.6c-11.61-9.18-20.7-17.66-29.99-27.77c-3.55-3.86-9.11-10.23-12.85-13.36
				c-0.54-0.49-0.94-1.78-2.07-1.84l-5.4-6.13l4.09,2.43c-0.53-1.1-7.47-8.19-8.34-7.28c-0.37,0.39,0.4,0.83,0.64,1.44l2.52,6.49
				c0.09,0.23,0.65,0.75,0.55,1.04c-0.42,1.32-0.9-0.62-1.53-0.22c-0.07-1.45-2.62-10.21-6.79-9.18c2.61,4.84,3.58,5.49,6.79,9.18
				c-0.07,0.69,0.29,1.52-0.32,1.96l-12.33-15.49c-1.57,0.85-2.6,2.04-3.65,3.39l-29.1,37.45c-5.19,6.67-10.8,12.34-15.33,19.32
				c-3.07,4.72-7.55,8.38-9.35,14.06c11.28-9.02,20.53-18.83,30.69-28.63l20.95-20.2l8-9.31c1.16-1.35,1.81-2.62,2.58-4.66
				c0.87,0.69,1.43,1.89,1.16,2.8c-2.09,1.45-2.89,4.04-4.97,6.04c-4.53,4.37-5.51,10.86-2.15,15.87c-1.07-0.45-1.83-1.08-2.7-2.58
				l-2.71,6.79l9.79,9.75c1.63,1.62,2.9,3.05,4.72,4.32c-1.87-4.89-4.86-8.43-7.01-13.02c-0.66-1.41-3.08-2.61-1.79-4.74l8.2,14.28
				c2.38,4.14,4.6,7.94,7.68,11.32c0.64,0.7,2.43,0.98,1.98,2.62c-1.31-0.19-1.4-1.46-2.18-2.22L294.53,96.5l-20,30.88l-26.3,37.86
				c-1.7,2.45-3.13,4.93-5.7,6.88c1.19-2.95,3.24-5.08,4.92-7.62l16.03-24.23c8.86-13.4,17.63-26.29,25.96-40.19
				c3.12-5.2,5.97-9.9,6.95-15.31c-7.45,9.59-13.62,19.05-19.59,29.25c-1.52,2.59-3.79,4.42-4.88,6.76
				c-0.63,1.36-1.03,3.13-2.95,3.84l9.13-14.62c4.2-6.72,7.49-13.31,11.96-20.07c-4.23,2.8-5.58,7.13-9.42,9.49
				c-0.17-0.32,0.15-0.72-0.36-1.44c-1.14,1.12-2.43,1.98-3.51,3.37c-0.04,0.47,0.39,0.92,0.7,0.71c-0.35,1.05-1.22,1.5-2.04,2.16
				c0.16-0.71-0.47-1.16-0.82-0.33l-27.36,24.5l-11.24,9.5c-1.19,1.01-1.58,2.95-3.86,2.68c2.31-2.32,7.81-6.67,8.93-9.14
				c1.43-3.17,3.98-5.16,5.67-7.77l14.82-22.86c4.62-7.12,8.78-13.9,12.83-21.01c-1.47-0.16-13.78,16.97-12.13,10.96l4.88-4.76
				c-0.04-2.79-6.62,4.63-4.88,4.76c-5.87,1.07-6.82,3.99-11.08,8.45c1.99-0.44,2.24-3.35,4.93-2.38
				c-9.38,8.93-18.31,17.38-26.79,26.45c-0.97,1.04-1.83,2.59-3.57,2.89c0.89-2.59,3.43-3.55,5.25-5.59
				c4.59-5.16,9.72-9.72,13.89-15.09c4.49-5.78,8.59-11.11,14.95-16.06c-5.87,1.18-10.02,3.58-15.12,5.42
				c-4.73,1.71-8.43,4.51-11.87,7.74c-6.1,5.71-11.87,11.2-18.69,16.29c-12.14,9.08-24.89,17.02-38.71,23.94
				c-6.72,3.37-13.08,3.58-19.94,0.76l-18.11-7.45c-3.43-1.41-6.15-0.76-9,1.14l-25.38,16.94l-34.09,19.7
				c-3.38,1.95-5.43,6.02-8.34,8.72l-3.7,3.43c-2.83,2.63-5.34,5.73-9.14,8.12c1.54-3.41,5.71-4.85,7.67-8.12
				c1.05-1.75,8.13-5.94,9.7-10.47c-19.98,10.58-40.24,19.42-60.01,27.77V202c13.07-4.58,25.54-11.41,38.03-17.89
				c2.21-1.15,31.83-15.43,31.94-16.45c0.07-0.65-0.31-1.22-0.67-1.69c0.25-0.43,0.57-0.19,0.91,0c0.37,0.21,0.4,0.71,0.7,0.85
				c0.57,0.26,1.37-0.01,1.95-0.34l15.65-9c0.59-0.34,0.84-0.77,0.97-1.11c0.12-0.32-0.1-0.57-0.24-0.93
				c1.11,1.48,7.24-2.75,7.99-3.99c-2.59-0.81-5.03-1.58-7.4-2.51l-10.11-3.97c2.93,4.03,6.04,7.24,9.53,10.47
				c-2.81-0.51-4.55-3.24-6.68-5.71c-2.69-0.31,1.34,3.52,1.45,3.62c-1.47-0.22-1.61,0.2-0.51,1.57c-0.82,0.88-0.99-0.3-1.68-0.24
				c0.1-1.93-2.92-11.53-5.55-11.23c-0.25,2.3,1.24,3.9,1.59,5.76c0.75,3.93,1.7,7.56,3.15,11.56c-3.58-2.86-3.83-14.9-7.29-18.08
				c-0.32,0-0.72-0.05-1.03,0c-0.39,0.07-0.35,0.5-0.37,0.75c-1.53,0.69-3.4,2.79-4.33,3.9c-0.24,0.29-0.66,0.44-0.99,0.89
				c-1.21,1.64-3.51,3.68-3.44,5.79h-1.46c0.01-0.28,0.22-1.21-0.36-1.26c-0.31-0.03-0.88,0.75-1.1,0.95
				c-0.25,0.24,0.1,1.37,0.71,0.68c0.18-0.21,0.36-0.49,0.75-0.37c-0.04,0.21,0.06,0.46,0,0.67c-0.52,1.77-2.36,2.92-3.62,4.54
				l-10.37,13.33l-5.63,5.94c-1.86,1.96-3.24,3.83-4.45,5.62c-0.27-0.18-0.67,0-1.12-0.11c-0.58-0.14-0.34-0.4-0.04-0.69
				c9.93-9.48,14.09-16.13,21.57-27.87c1.13-1.78,2.07-3.33,3.46-4.57c0.17,0.23,0.99-0.02,0.89,0.19
				c-0.18,0.37,0.12,1.49,0.43,0.95l0.94-1.68c0.47-0.84-0.86-1.2-1.37-0.86c-0.74,0.48-1.71,0.62-1.52,1.46l-13.62,8.57
				l-12.88,6.75c-7.15,3.75-14.09,7.53-21.64,10.97c-4.88,2.23-8.76,5.2-13.13,7.46v-2.67c9.99-4.87,18.48-12.94,28.69-18.63
				c6.74-3.75,11.59-1.45,19.6-6.76l19.35-12.84c9.53-6.33,3.74-3.69,21.24,2.47l11.16,3.93l21.7-14.42
				c4.08-2.71,7.92-2.96,12.82-0.95c6.23,2.56,12.31,5.52,18.81,7.67c5.44,1.8,10.4,1.22,15.5-1.23
				c9.94-4.77,18.83-10.36,27.88-16.29c10.15-6.66,19.14-14,27.84-22.58c12.63-12.45,24.31-11.1,38.47-20.87
				c4-2.76,6.53-6.41,10.12-9.51l22.51-19.45c3.98,1.54,8.23,7.46,12.24,5.22c8.12,6.58,15.98,17.65,23,24.19
				c-0.12,0.44,0.15,1.06,0.77,0.81c-0.14,0.38,0.22,0.75,0.65,0.65c-0.27,0.43,0.08,0.96,0.64,0.7c-0.26,0.3-0.08,0.31,0.03,0.62
				c0.36,1,1.53,1.44,2.3,2c0.71,0.52,1.07,2.17,2.31,2.13c6.89,8.77,16.27,16.09,25.1,23.54c3.15-2.19,4.23-5.06,6.18-7.13
				l4.36-4.64c8.82-9.39,16.71-19.52,24.87-29.81c6.45-8.14,16.1-10.29,30.05-26.01l15.33-17.27c0.85-0.96,2.09-1.6,3.13-1.48
				c5.1,0.56,5.14,16.85,12.72,18.63c6.56,1.53,15.14-10.97,19.81-15.99c2.55-2.74,6.53-4.09,10.21-5.5l12.61,11.45
				c4.72,4.29,8.9,8.3,12.61,13.12c8.66,11.26,17.69,22.06,27.99,32.39c5.99,6.01,8.31,0.64,12.57,5.78L569.15,96.61z"/>
			<g>
				<path fill="#F0F0F6" d="M361.64,102.04c2.55,0.85,5.37,1.02,8.06,1.43c0.99,0.78,2.51,1.48,3.84,1.12
					c0.41,0.09,0.24,0.48,0.5,0.66c-1.95,2.07-3.03,4.94-6.18,7.13c-8.83-7.45-18.22-14.77-25.1-23.54
					c1.14-0.03,1.94,0.86,2.81,1.82c1.93,2.12,4.56,3.05,6.65,4.65C355.43,97.79,357.89,100.79,361.64,102.04z"/>
				<g>
					<path fill="#FFFFFF" d="M378.4,100.61l-4.36,4.64c-0.26-0.18-0.1-0.57-0.5-0.66c2.06-4.41,2.91-1.2,3.34-3.89
						C377.35,100.56,377.94,100.87,378.4,100.61z"/>
					<path fill="#FFFFFF" d="M675.89,60.74c-0.62,1.01-3.07,1.07-3.77,0.11C673.29,60.36,674.71,61.03,675.89,60.74z"/>
					<path fill="#FFFFFF" d="M742.32,98.78c-1.56,0.58-2.29,0.98-3.75-0.11L742.32,98.78z"/>
					<path fill="#FFFFFF" d="M572.04,97.88c-0.3,0.12-0.78,0.8-1.1,0.73c-0.44-0.1-1.18-0.86-1.09-1.24
						C570.58,97.47,571.85,96.96,572.04,97.88z"/>
					<path fill="#FFFFFF" d="M671.39,60.81c-0.58-0.3-1.47-0.72-1.52-1.4C670.4,59.73,671.56,59.89,671.39,60.81z"/>
					<path fill="#FFFFFF" d="M754.78,105.34c-0.67,0.28-0.67-0.33-0.94-0.64C754.36,104.58,754.71,104.9,754.78,105.34z"/>
					<path fill="#FFFFFF" d="M569.85,97.37c-0.54,0.1-0.88-0.29-0.69-0.76C569.35,96.85,570.1,96.85,569.85,97.37z"/>
					<path fill="#131428" d="M668.58,155.32c-0.7-0.8-1.59-0.4-1.57-1.96C667.95,153.51,668.86,154.53,668.58,155.32z"/>
					<path fill="#4E6D97" d="M530.4,65.05c-0.15,0.29-0.27,0.04-0.47-0.08c-0.32-0.12-0.74-0.21-0.98-0.57
						c-0.15-0.22,0.04-0.65-0.01-1.01C529.86,63.42,530.11,64.54,530.4,65.05z"/>
					<path fill="#FCFCFD" d="M527.25,61.27c-0.64-0.42-1.16,0.43-1.3,0.69c-1.67-0.07-3.74,1.71-5.78,1.09
						c-5.1-1.55-6.09-8.32-8.05-9.65c0.39-1.07-3.89-9.19-5.01-10.77c-0.14,2.22,3.63,9.84,5.01,10.77
						c-0.53,1.45,1.65,2.48,0.76,4.29l-7.77-11.21c-0.51-0.74-1.01-1.28-1.7-1.11c0.68-0.37,0.1-0.91-0.39-1.27
						c-0.27-0.2-0.37-0.85-1.05-0.66c-1.11-5.38-5.07-9.83-5.8-16l16.51,15.4C518.7,48.45,522.65,55.16,527.25,61.27z"/>
					<path fill="#F9FAFC" d="M478.1,58.18c-0.53-2.57-0.52-4.78,0.1-7.07c1.84-6.8-1.94-12.48,8.89-21.17
						c-0.26,4.83-1.97,8.63-3.19,12.65C482.27,47.98,480.89,53.28,478.1,58.18z"/>
					<path fill="#F9FAFA" d="M501.96,43.43c-0.38,0.54,0.37,2.19,1.45,1.93c-1.29,0.69,5.63,7.86,4.74,7.97
						c-6.28-5.02-10.64-10.95-14.29-17.24l-4.62-7.95c1.6-1.12,2.88-1.91,4.99-2.28C495.94,32.08,497.34,39.05,501.96,43.43z"/>
					<path fill="#EFF1F5" d="M687.44,89.87c-3.51-4.85-9.38-17.98-7.64-24.55C682.69,73.69,685.47,81.15,687.44,89.87z"/>
					<path fill="#EBF0F5" d="M647.44,101.33c1.15,3.66,4.23,6.25,4.77,10.23c-2.9-3.83-4.83-7.96-6.95-12.23l-7.61-15.31
						c2.11,1.67,3.39,3.75,4.46,6.02L647.44,101.33z"/>
					<path fill="#929EBF" d="M663.22,148.75c-1.15-0.56,2.68,4.42,3.79,4.6c-0.02,1.56,0.87,1.16,1.57,1.96
						c-0.13,0.35-0.37,1.73-0.67,1.34c-5.86-7.66-12.2-14.33-19.51-21.63C652.8,135.95,658.35,145.68,663.22,148.75z"/>
					<path fill="#F7F8F9" d="M736.77,106.82c-0.16,1.82-0.55,3.36-0.29,5.99c-2.1-1.25-2.91-2.97-2.26-4.77
						c0.75-2.4,0.66-4.9,2.45-7.65C737.27,102.81,736.94,104.83,736.77,106.82z"/>
					<path fill="#E4ECF1" d="M612.92,100.53c-1.76-1.64,1.22-1.27,1.64-1.56c3.99-2.81,7.41-7.2,12.01-10.05
						C623.24,93.86,618.22,97.26,612.92,100.53z"/>
					<path fill="#F4F6F9" d="M924.63,155.43c6.27,0.77,4.4,7.6,5.79,10.29C927.75,161.85,925.79,158.96,924.63,155.43z"/>
					<path fill="#E2E4E9" d="M556.08,97.37c-2.14-0.74-3.5-2.29-3.29-4.27c0.16-1.52-2.29-2.4-1.74-4.5
						C554.49,92.38,552.97,91.34,556.08,97.37z"/>
					<path fill="#DADAE5" d="M524.55,79.38c0.25-3.75,3.12-6.9,2.86-10.7C530.86,66.75,525.25,80.4,524.55,79.38z"/>
					<path fill="#FBF9FC" d="M662.12,103.98c3.19,3.69,1.96,2.51,0.84,8.17C661.92,109.25,662.05,106.9,662.12,103.98z"/>
					<path fill="#D0D4E2" d="M485.86,40.36c3.13-2.38-0.39,4.77-1.24,5.06C484.13,43.83,485.87,42.58,485.86,40.36z"/>
					<path fill="#F8F7F9" d="M545.77,83.35c1.65,0.73,3.29,2.56,2.62,4.79C547.81,86.29,545.8,85.15,545.77,83.35z"/>
					<path fill="#F9FAFB" d="M639.98,68.72c0.14-1.37,1.49-3.02,3.09-3.2C643.28,66.9,640.93,67.87,639.98,68.72z"/>
					<path fill="#DBDEE9" d="M654.59,115.37c-1.2-0.77-2.22-1.81-2.08-3.4C653.95,112.77,654.46,114.14,654.59,115.37z"/>
					<path fill="#4E6D97" d="M527.25,61.27c0.47,0.62,2.35,0.77,1.69,2.12c-1.21-0.37-1.66-1.68-2.98-1.43
						C526.09,61.7,526.61,60.84,527.25,61.27z"/>
					<path fill="#E5E8EF" d="M638.52,70.72c0.08,0.49-0.51,2.12-1.17,1.83C636.28,71.71,638.08,70.9,638.52,70.72z"/>
					<path fill="#F9FBFA" d="M638.52,70.72c-0.47-1.1,0.88-1.58,1.46-2C639.48,69.19,639.96,70.8,638.52,70.72z"/>
					<path fill="#DBDEE9" d="M654.59,115.37c0.91,0.08,2.05,1.34,1.19,1.78C655.17,117.46,654.21,115.98,654.59,115.37z"/>
					<g>
						<path fill="#FBFCFD" d="M611.33,96.01c1.28-0.05,1.98-1.6,2.35-2.64c1.77-0.82,7.24-8.44,7.31-10
							c1.27-0.36,2.11-1.79,2.09-3.39c-1.4,0.78-2.04,2.17-2.09,3.39c-1.75,0.5-6.8,8.59-7.31,10
							C612.6,93.87,611.24,94.34,611.33,96.01c-0.51,0.02-1.1-0.1-1.31,0.36c-0.14,0.3,0.21,1.42-0.34,1.83
							c-2.65,1.99-4.19,4.36-6.39,6.38c-5.16,4.72-10.51,8.43-16.58,12.39c-2.91-3.59-7.32-5.86-7.52-9.51
							c2.17-0.28,4.19-2.11,4.26-4.39c-1.9,1.31-2.29,2.85-4.26,4.39c-3.28-0.58-4.63-4.52-7-6.72c0.52-1.53,3.02-1.43,4.19-0.86
							c10.91,5.4,15.45-6.81,24.24-7.94c-3.68,5.44-7.76,9.76-12.83,13.92c4.38-1.13,6.4-4.72,9.24-7.19
							c-1.75,6.4-6.53,10.43-9.05,16.08c3.25-1.67,4.11-4.82,5.72-7.5l9.43-15.66l7.51-3.68l24.12-17.16
							c-8.21,12.09-15.98,21.77-27.85,31.64C607.3,99.55,611.4,97.5,611.33,96.01z"/>
						<g>
							<path fill="#465671" d="M613.68,93.37c0.51-1.4,5.56-9.5,7.31-10C620.92,84.94,615.45,92.56,613.68,93.37z"/>
							<path fill="#1A213C" d="M579.18,107.47c1.97-1.54,2.36-3.07,4.26-4.39C583.36,105.36,581.34,107.19,579.18,107.47z"/>
							<path fill="#465671" d="M620.99,83.38c0.05-1.22,0.69-2.61,2.09-3.39C623.1,81.59,622.26,83.01,620.99,83.38z"/>
							<path fill="#465671" d="M613.68,93.37c-0.38,1.04-1.08,2.59-2.35,2.64C611.24,94.34,612.6,93.87,613.68,93.37z"/>
							<ellipse fill="#1A213C" cx="585.29" cy="102.13" rx="0.72" ry="0.66"/>
						</g>
					</g>
					<path fill="#1B1D3B" d="M503.41,45.36c-1.08,0.26-1.83-1.39-1.45-1.93c0.68-0.19,0.78,0.46,1.05,0.66
						C503.51,44.45,504.09,44.99,503.41,45.36z"/>
				</g>
				<g>
					<path fill="#F0F0F6" d="M342.77,88.84c-1.24,0.04-1.6-1.61-2.31-2.13c0.87-0.21,1.39,0.19,1.86,0.66
						C342.79,87.86,343.07,88.32,342.77,88.84z"/>
					<path fill="#F0F0F6" d="M336.84,82.74c-0.62,0.25-0.89-0.36-0.77-0.81C336.33,82.18,337.05,82.17,336.84,82.74z"/>
					<path fill="#F0F0F6" d="M340.46,86.71c-0.77-0.57-1.94-1-2.3-2C339.16,85.14,340.95,85.38,340.46,86.71z"/>
					<path fill="#F0F0F6" d="M338.12,84.09c-0.56,0.26-0.91-0.28-0.64-0.7C337.99,83.27,338.52,83.63,338.12,84.09z"/>
					<path fill="#1B1D3B" d="M285.68,163.35c0.02,0.47-0.39,2.17-1.21,1.79C283.51,164.47,285.1,163.43,285.68,163.35z"/>
					<path fill="#F9F8FA" d="M86.96,154.69c-0.37,0.08-0.77-0.12-0.72-0.36c0.08-0.42,0.08-1.17-0.88-0.88l1.86,6.63
						C88.83,157.94,86.88,156.36,86.96,154.69c0.7-0.07,0.86,1.11,1.68,0.24c-1.11-1.37-0.96-1.79,0.51-1.57
						c-0.39,0.52,0.67,2.16,1.15,1.79c1.11-0.89-0.72-1.37-1.15-1.79c-0.11-0.1-4.13-3.93-1.45-3.62c2.12,2.47,3.87,5.2,6.68,5.71
						c0.15,0.36,0.37,0.61,0.24,0.93c-0.13,0.34-0.38,0.77-0.97,1.11l-15.65,9c-0.59,0.34-1.39,0.6-1.95,0.34
						c-0.3-0.14-0.32-0.64-0.7-0.85c-1.1-1.65-1.27-3.73-0.45-6.01l1.22,6.25c1.71-2.31-0.11-4.21,0.14-6.19
						c0.59-4.77,0.92-9.36,2.24-13.75c0.38-1.26,0.66-2.42,0.37-3.59c3.45,3.18,3.7,15.22,7.29,18.08
						c-1.45-3.99-2.4-7.62-3.15-11.56c-0.36-1.86-1.85-3.46-1.59-5.76C84.04,143.15,87.05,152.75,86.96,154.69z"/>
					<path fill="#F0F4F7" d="M292.97,62.72l-14.46,18.75c-3.96,5.14-7.14,10.21-11.71,14.6c1.89-4.3,4.36-7.95,7.13-12.04
						c1.8-2.67,4.99-4.87,5.35-7.68c0.18-1.38,0.35-2.45,2.05-3.35c-0.02-1.38,0.99-0.84,0.57,0.34c-0.6-0.21-1.29,0.76-1.32,1.52
						c0.07,0.95,0.87,0.09,1.12-0.16c0.45-0.44,1.02-1.07,0.2-1.36c4.4-2.44,6.34-7.39,10.4-10.47
						C292.5,62.71,292.73,62.68,292.97,62.72z"/>
					<path fill="#F7F9FC" d="M21.19,174.91c4.93-4.46,16.97-13.16,24.08-12.34L21.19,174.91z"/>
					<path fill="#F2F3F6" d="M314.16,68.72c-3.22-3.69-4.18-4.34-6.79-9.18C311.54,58.5,314.09,67.27,314.16,68.72z"/>
					<path fill="#E1EBF1" d="M262.29,90.71c-1.74-0.13,4.84-7.55,4.88-4.76L262.29,90.71z"/>
					<path fill="#3E68A1" d="M280.64,99.41c-0.98,0.6-2.76,1.41-3.16,2.63c-0.31,0.22-0.74-0.24-0.7-0.71
						c1.07-1.39,2.37-2.25,3.51-3.37C280.79,98.69,280.47,99.09,280.64,99.41z"/>
					<path fill="#F7FCFE" d="M295.9,154.74c0.16-1.83,1.71-3.24,3.71-3.39C298.52,152.81,297.49,153.75,295.9,154.74z"/>
					<path fill="#8C9EBB" d="M67.04,150.87c-0.23,0.24-0.45,0.41-0.63,0.05c-0.19-0.84,0.77-0.98,1.52-1.46
						c0.52-0.34,1.85,0.02,1.37,0.86l-0.94,1.68c-0.3,0.54-0.6-0.59-0.43-0.95C68.03,150.86,67.21,151.1,67.04,150.87z"/>
					<path fill="#BCC4DE" d="M67.23,154.02c-0.39-0.12-0.57,0.16-0.75,0.37c-0.61,0.69-0.96-0.45-0.71-0.68
						c0.22-0.21,0.79-0.98,1.1-0.95C67.45,152.81,67.24,153.74,67.23,154.02z"/>
					<path fill="#6D90BE" d="M292.97,62.72c-0.24-0.04-0.48-0.01-0.67,0.14c-0.77-0.19,1.07-1.43,1.11-1.41
						c0.35,0.27,0.39,0.79,0.28,1.01C293.58,62.68,293.45,62.76,292.97,62.72z"/>
					<path fill="#1B1D3B" d="M89.15,153.35c0.43,0.42,2.26,0.9,1.15,1.79C89.82,155.52,88.76,153.87,89.15,153.35z"/>
					<path fill="#1B1D3B" d="M281.91,73.33c0.81,0.29,0.24,0.92-0.2,1.36c-0.25,0.25-1.05,1.11-1.12,0.16
						C280.61,74.08,281.31,73.12,281.91,73.33z"/>
				</g>
			</g>
		</g>
	</g>
	<g>
		<path fill="#FDFDFE" d="M67.04,150.87c-1.4,1.24-2.33,2.79-3.46,4.57c-7.48,11.74-11.64,18.39-21.57,27.87
			c-0.3,0.29-0.53,0.55,0.04,0.69c0.45,0.11,0.84-0.07,1.12,0.11C30.68,190.59,18.21,197.42,5.14,202v-17.33
			c4.37-2.26,8.25-5.23,13.13-7.46c7.54-3.44,14.48-7.22,21.64-10.97l12.88-6.75l13.62-8.57C66.59,151.28,66.82,151.11,67.04,150.87
			z"/>
		<path fill="#FBFBFD" d="M74.44,165.97c0.35,0.47,0.73,1.04,0.67,1.69c-0.11,1.02-29.72,15.3-31.94,16.45
			c1.21-1.79,2.59-3.65,4.45-5.62l5.63-5.94l10.37-13.33c1.26-1.62,3.1-2.76,3.62-4.54c1.51-0.01,1.18,1.6,1.65,2.33
			C70.98,160.25,72.41,163.29,74.44,165.97z"/>
		<path fill="#5A6F8B" d="M78.87,142.68c0.29,1.17,0.01,2.33-0.37,3.59c-1.32,4.4-1.64,8.99-2.24,13.75
			c-0.25,1.97,1.57,3.88-0.14,6.19l-1.22-6.25c-0.82,2.28-0.65,4.36,0.45,6.01c-0.35-0.2-0.67-0.43-0.91,0
			c-2.03-2.68-3.46-5.73-5.55-8.96c-0.47-0.73-0.14-2.34-1.65-2.33c0.06-0.21-0.04-0.45,0-0.67h1.46c1.32,1.52,2.77,7.17,3.99,7.58
			c2.43,0.81-0.79-12.75-0.54-13.37c0.33-0.45,0.75-0.59,0.99-0.89c0.05,0.5,0.68,11.11,1.97,10.13l2.71-12.98
			c0.9-0.33,0.39-1.3-0.35-1.05c0.02-0.25-0.02-0.68,0.37-0.75C78.14,142.63,78.55,142.68,78.87,142.68z"/>
		<path fill="#F6F5F7" d="M73.13,147.34c0.92-1.11,2.8-3.21,4.33-3.9c0.74-0.25,1.25,0.72,0.35,1.05l-2.71,12.98
			C73.81,158.44,73.18,147.84,73.13,147.34z"/>
		<path fill="#FBFAFB" d="M68.7,154.02c-0.06-2.11,2.23-4.16,3.44-5.79c-0.24,0.62,2.97,14.18,0.54,13.37
			C71.46,161.19,70.01,155.54,68.7,154.02z"/>
		<path fill="#617891" d="M86.96,154.69c-0.08,1.68,1.87,3.25,0.26,5.39l-1.86-6.63c0.96-0.29,0.96,0.46,0.88,0.88
			C86.19,154.57,86.59,154.77,86.96,154.69z"/>
		<g>
			<path fill="#F8F7F8" d="M94.38,155.44c-3.49-3.23-6.59-6.44-9.53-10.47l10.11,3.97c2.37,0.93,4.82,1.7,7.4,2.51
				C101.62,152.69,95.49,156.92,94.38,155.44z"/>
			<path fill="#6C7A94" d="M97.98,153.17c-1.56-0.54-2.96-1.56-3.77-3.62C95.77,150.08,97.17,151.1,97.98,153.17z"/>
		</g>
	</g>
</g>
</svg>
